<svg width="809" height="593" viewBox="0 0 809 593" fill="none" xmlns="http://www.w3.org/2000/svg">
<g clip-path="url(#clip0)">
<path opacity="0.1" d="M58.5069 237.965C75.5313 276.358 53.8097 320.582 28.2813 353.917C19.7201 365.076 10.3094 376.756 9.10851 390.801C7.67892 407.93 19.2953 423.68 33.0847 433.973C58.221 452.733 92.5638 458.532 122.479 449.071C148.334 440.914 170.072 422.424 196.148 414.969C239.787 402.497 286.008 423.174 323.348 448.924C349.775 467.146 378.081 489.299 409.941 485.408C432.373 482.667 451.407 466.95 464.314 448.435C470.547 439.463 475.971 429.487 485.055 423.451C490.455 419.863 496.794 417.962 503.142 416.608C561.06 404.251 622.516 434.414 679.667 418.9C718.266 408.419 749.047 377.955 768.179 342.89C787.311 307.825 796.248 268.217 803.69 228.977C808.976 201.09 813.362 171 801.239 145.34C788.381 118.195 758.621 101.744 728.714 98.6688C698.807 95.5938 668.802 104.117 641.248 116.14C606.815 131.172 573.069 152.216 535.483 152.289C509.889 152.338 485.488 142.502 461.014 135.055C420.021 122.551 377.542 116.336 335.12 110.602C294.528 105.112 253.544 99.9983 212.706 103.261C183.812 105.553 158.3 116.58 130.264 121.678C111.99 125.006 93.6258 122.494 75.6947 128.13C53.6382 135.022 30.8954 151.017 29.6782 176.18C28.5264 200.103 49.4719 217.582 58.5069 237.965Z" fill="#FFBA00"/>
<g opacity="0.5">
<path opacity="0.5" d="M570.112 149.394C566.027 150.569 560.954 153.603 558.471 161.93C553.569 178.243 564.908 189.401 561.191 206.342C560.175 210.847 558.227 215.089 555.473 218.797C550.922 224.956 545.972 227.876 541.185 232.19C535.1 237.701 530.74 244.85 528.629 252.777C526.316 261.526 526.122 270.7 528.065 279.539C529.773 286.928 532.681 292.303 535.213 298.299C538.366 305.948 540.827 313.864 542.566 321.952C543.531 325.883 544.079 329.905 544.199 333.95C544.281 339.032 543.489 344.554 542.713 350.002L535.793 398.215C534.87 404.634 533.939 411.16 533.906 417.269C533.857 424.324 534.993 430.384 536.12 436.298C538.571 449.055 541.16 462.292 546.74 469.022C552.319 475.751 561.779 473.418 567.604 459.682C573.142 446.632 573.257 429.177 578.142 415.213C585.837 393.191 601.146 390.255 609.634 369.268C617.803 349.138 615.287 324.407 619.436 301.471C622.394 285.02 628.692 270.012 632.425 253.756C637.792 230.339 637.261 206.032 632.973 188.039C628.684 170.046 620.989 157.689 612.493 148.317C608.89 144.345 605.043 140.813 600.517 140.463C595.705 140.096 591.531 146.172 586.752 147.958C581.213 150.022 575.691 147.812 570.112 149.394Z" fill="#059033"/>
<path opacity="0.5" d="M596.163 141.604C596.163 141.604 587.994 349.823 553.741 472.61" stroke="#535461" stroke-width="2" stroke-miterlimit="10"/>
<path opacity="0.5" d="M558.258 162.95C558.258 162.95 594.839 196.237 587.937 259.661" stroke="#535461" stroke-width="2" stroke-miterlimit="10"/>
<path opacity="0.5" d="M527.526 257.663C527.526 257.663 587.651 269.734 583.19 305.639" stroke="#535461" stroke-width="2" stroke-miterlimit="10"/>
<path opacity="0.5" d="M633.046 187.542C633.046 187.542 608.727 208.806 587.046 269.033" stroke="#535461" stroke-width="2" stroke-miterlimit="10"/>
<path opacity="0.5" d="M609.266 369.57C609.266 369.57 592.667 382.62 579.343 337.099" stroke="#535461" stroke-width="2" stroke-miterlimit="10"/>
<path opacity="0.5" d="M537.656 396.119C537.656 396.119 571.509 391.706 574.629 370.532" stroke="#535461" stroke-width="2" stroke-miterlimit="10"/>
</g>
<path d="M651.941 9.73882C643.56 10.9786 633.479 14.8529 629.337 26.8185C621.209 50.2765 645.929 68.0331 640.235 92.5433C638.528 99.8841 634.321 105.855 629.885 110.21C621.193 118.742 611.3 122.445 601.906 128.236C592.511 134.027 582.757 143.113 578.354 157.069C574.114 170.495 575.952 185.331 580.356 196.416C584.759 207.501 591.425 215.763 597.38 224.882C604.632 236.108 610.696 248.056 615.474 260.534C617.607 266.023 619.559 271.814 620.253 278.389C621.021 285.884 620.049 293.951 619.085 301.846L610.491 371.992C609.348 381.331 608.196 390.834 608.858 399.83C609.601 410.213 612.672 419.267 615.703 428.109C622.238 447.178 629.231 466.991 641.542 477.553C653.853 488.116 673.197 485.808 683.605 466.265C693.514 447.66 691.692 422.008 700.139 402.024C713.454 370.532 744.783 367.987 759.855 338.094C774.322 309.416 766.227 272.728 772.035 239.401C776.201 215.518 787.466 194.173 793.275 170.674C801.607 136.817 797.629 100.969 786.6 73.9629C775.572 46.9568 758.188 27.8462 739.497 13.0422C731.573 6.76986 723.159 1.10112 713.781 0.0570896C703.782 -1.05219 695.809 7.34897 686.178 9.4615C674.986 11.9655 663.304 8.05858 651.941 9.73882Z" fill="#059033"/>
<path d="M704.926 1.33765C704.926 1.33765 712.809 307.01 656.434 483.769" stroke="#535461" stroke-width="2" stroke-miterlimit="10"/>
<path d="M629.011 28.2867C629.011 28.2867 708.757 81.6463 701.928 174.222" stroke="#535461" stroke-width="2" stroke-miterlimit="10"/>
<path d="M576.663 164.133C576.663 164.133 702.532 189.026 697.566 241.366" stroke="#535461" stroke-width="2" stroke-miterlimit="10"/>
<path d="M786.715 73.3593C786.715 73.3593 738.877 101.793 701.193 187.917" stroke="#535461" stroke-width="2" stroke-miterlimit="10"/>
<path d="M759.12 338.6C759.12 338.6 726.313 355.842 693.334 287.214" stroke="#535461" stroke-width="2" stroke-miterlimit="10"/>
<path d="M614.012 369.227C614.012 369.227 683.556 366.731 687.534 335.932" stroke="#535461" stroke-width="2" stroke-miterlimit="10"/>
<path opacity="0.1" d="M398.822 510.424C591.772 510.424 748.189 495.422 748.189 476.917C748.189 458.412 591.772 443.41 398.822 443.41C205.872 443.41 49.4556 458.412 49.4556 476.917C49.4556 495.422 205.872 510.424 398.822 510.424Z" fill="#FFBA00"/>
<path d="M54.937 437.032C54.937 437.032 61.7827 446.004 51.7756 459.462C41.7685 472.92 33.5177 484.356 36.8915 492.765C36.8915 492.765 51.988 467.7 64.2743 467.35C76.5606 466.999 68.4569 452.105 54.937 437.032Z" fill="#3A5F0B"/>
<path opacity="0.1" d="M54.937 437.032C55.5336 437.896 56.0039 438.841 56.334 439.838C68.3262 453.9 74.7062 467.023 63.1878 467.358C52.4537 467.668 39.5792 486.827 36.4913 491.672C36.5932 492.046 36.7159 492.413 36.8589 492.773C36.8589 492.773 51.9553 467.708 64.2416 467.358C76.5279 467.007 68.4569 452.105 54.937 437.032Z" fill="black"/>
<path d="M67.6645 448.427C67.6645 451.575 67.3132 454.136 66.8475 454.136C66.3819 454.136 66.0306 451.583 66.0306 448.427C66.0306 445.27 66.4718 446.795 66.9047 446.795C67.3377 446.795 67.6645 445.278 67.6645 448.427Z" fill="#FFD037"/>
<path d="M72.0186 452.178C69.2492 453.687 66.8394 454.625 66.6352 454.209C66.4309 453.793 68.4977 452.293 71.267 450.792C74.0363 449.291 72.9417 450.384 73.1541 450.792C73.3665 451.2 74.796 450.661 72.0186 452.178Z" fill="#FFD037"/>
<path d="M18.7725 437.032C18.7725 437.032 11.9269 446.004 21.934 459.462C31.9411 472.92 40.1592 484.356 36.8916 492.765C36.8916 492.765 21.7951 467.7 9.50881 467.35C-2.77748 466.999 5.26089 452.105 18.7725 437.032Z" fill="#3A5F0B"/>
<path opacity="0.1" d="M18.7725 437.032C18.176 437.896 17.7057 438.841 17.3756 439.838C5.38343 453.9 -0.996614 467.023 10.5218 467.358C21.2559 467.668 34.1304 486.827 37.2183 491.672C37.1164 492.046 36.9937 492.413 36.8507 492.773C36.8507 492.773 21.7543 467.708 9.46797 467.358C-2.81832 467.007 5.2609 452.105 18.7725 437.032Z" fill="black"/>
<path d="M6.05328 448.427C6.05328 451.575 6.40455 454.136 6.87019 454.136C7.33583 454.136 7.6871 451.583 7.6871 448.427C7.6871 445.27 7.24597 446.795 6.81301 446.795C6.38005 446.795 6.05328 445.278 6.05328 448.427Z" fill="#FFD037"/>
<path d="M1.68284 452.178C4.45216 453.687 6.86203 454.625 7.06626 454.209C7.27048 453.793 5.20371 452.293 2.43439 450.792C-0.334924 449.291 0.759734 450.384 0.547338 450.792C0.334942 451.2 -1.08648 450.661 1.68284 452.178Z" fill="#FFD037"/>
<path d="M8.22626 491.599C8.22626 491.599 27.3664 491.012 33.1338 486.909C38.9011 482.806 62.5424 477.937 64.0047 484.462C65.467 490.987 92.768 517.178 71.1608 517.349C49.5536 517.52 20.9537 513.988 15.1945 510.489C9.43528 506.99 8.22626 491.599 8.22626 491.599Z" fill="#8E4B32"/>
<path opacity="0.2" d="M71.5529 515.098C49.9457 515.269 21.3458 511.737 15.5866 508.238C11.1998 505.571 9.45163 496.003 8.87162 491.591H8.23444C8.23444 491.591 9.44346 507.006 15.2027 510.505C20.9619 514.005 49.5618 517.544 71.2017 517.373C77.4429 517.324 79.5913 515.106 79.477 511.827C78.5538 513.809 76.193 515.049 71.5529 515.098Z" fill="black"/>
<path d="M257.35 367.816C257.35 367.816 353.133 306.716 419.351 306.716C419.351 306.716 499.073 294.318 585.788 315.272C672.503 336.226 704.534 363.395 728.576 355.418L627.573 358.371L257.35 367.816Z" fill="#535461"/>
<path opacity="0.1" d="M257.35 367.816C257.35 367.816 353.133 306.716 419.351 306.716C419.351 306.716 499.073 294.318 585.788 315.272C672.503 336.226 704.534 363.395 728.576 355.418L627.573 358.371L257.35 367.816Z" fill="#535461"/>
<path d="M708.814 461.33H124.66L140.721 397.082L240.056 370.712L708.814 383.012V461.33Z" fill="#171818"/>
<path d="M739.563 421.184V441.689C739.563 441.689 722.22 454.25 720.643 464.087C720.643 464.087 695.809 470.384 688.718 470.384C688.073 470.384 687.371 470.384 686.635 470.457C687.743 467.489 688.609 464.437 689.225 461.33C690.964 452.611 690.745 443.616 688.584 434.992C686.422 426.368 682.372 418.33 676.724 411.458C671.076 404.585 663.973 399.048 655.924 395.247C647.875 391.445 639.083 389.473 630.179 389.473C621.275 389.473 612.482 391.445 604.434 395.247C596.385 399.048 589.281 404.585 583.634 411.458C577.986 418.33 573.936 426.368 571.774 434.992C569.613 443.616 569.393 452.611 571.133 461.33C571.969 465.533 573.253 469.635 574.964 473.565H541.291C541.291 473.565 540.981 473.671 540.474 473.891C538.669 474.707 534.413 476.86 533.8 480.245H254.736L249.018 480.196C250.233 478.159 251.325 476.051 252.286 473.883C254.079 469.867 255.411 465.661 256.256 461.346C257.917 453.106 257.83 444.61 256.001 436.405C254.172 428.201 250.641 420.47 245.637 413.711C240.632 406.952 234.265 401.315 226.945 397.164C219.625 393.012 211.515 390.438 203.137 389.608C194.76 388.778 186.301 389.709 178.307 392.343C170.312 394.976 162.959 399.253 156.721 404.898C150.484 410.542 145.5 417.43 142.091 425.115C138.682 432.801 136.924 441.114 136.93 449.519C136.93 453.482 137.318 457.435 138.09 461.322C139.407 467.903 141.82 474.217 145.23 480C141.243 479.03 132.543 476.273 132.543 476.273C132.543 476.273 95.4965 472.341 86.0367 464.038L87.4663 463.051L93.5278 458.916L90.7666 448.312C90.4333 447.865 90.1588 447.377 89.9497 446.861C89.2145 445.091 88.5691 441.803 91.1669 437.676C95.1044 431.38 93.1357 408.949 93.1357 408.949C93.1357 408.949 146.741 371.96 252.375 363.689C252.375 363.689 254.9 365.646 260.112 366.054C263.641 366.34 268.403 365.907 274.456 363.689C274.456 363.689 283.124 367.62 320.203 346.373C320.203 346.373 383.277 303.078 466.054 307.026C466.054 307.026 551.192 301.904 623.717 329.864C654.972 341.903 678.752 348.322 695.703 351.715C711.355 354.855 721.182 355.435 725.684 355.484H725.782C727.252 355.484 728.126 355.484 728.437 355.484H728.567C728.567 355.484 728.567 364.855 729.066 375.924V375.981C729.245 379.831 729.49 383.884 729.833 387.824V388.069C730.781 399.039 732.415 409.006 735.25 410.98L739.563 421.184Z" fill="#CEAE57"/>
<path d="M101.656 408.052C101.656 408.052 125.404 389.553 154.967 393.493C154.967 393.493 128.067 414.748 115.944 413.37L113.877 411.6L101.623 412.285C101.623 412.285 99.7934 409.43 101.656 408.052Z" fill="#535461"/>
<path opacity="0.2" d="M124.709 440.058V450.98C124.709 450.98 123.892 461.412 114.457 461.803L87.499 463.133L93.5523 458.997L90.7911 448.394C90.4564 447.951 90.1817 447.465 89.9742 446.95C92.4249 444.699 98.2005 440.898 109.948 440.082L124.709 440.058Z" fill="white"/>
<path opacity="0.2" d="M250.153 394.284L270.846 393.468C270.846 393.468 262.472 400.059 256.558 400.654C250.644 401.25 250.153 394.284 250.153 394.284Z" fill="white"/>
<path opacity="0.2" d="M293.711 456.958C293.711 456.958 480.84 430.98 526.072 439.242C526.072 439.242 539.371 440.131 544.404 445.441C549.436 450.751 544.404 447.309 544.404 447.309L293.711 456.958Z" fill="white"/>
<path opacity="0.5" d="M398.463 384.047C398.463 384.047 400.832 379.619 404.672 379.521L429.604 378.24C429.604 378.24 429.211 381.682 424.776 382.963L398.463 384.047Z" fill="#18218A"/>
<path opacity="0.5" d="M542.729 376.568C542.729 376.568 545.098 372.139 548.937 372.041L573.869 370.728C573.869 370.728 573.477 374.17 569.041 375.451L542.729 376.568Z" fill="#18218A"/>
<path d="M457.599 315.884L438.467 365.981L369.487 366.054H351.728H336.28H322.924H307.794C307.794 366.054 317.009 359.301 331.852 350.696C336.754 347.841 342.317 344.79 348.354 341.724C353.909 338.885 359.889 336.014 366.171 333.29C371.072 331.136 376.235 329.065 381.512 327.132C405.439 318.396 432.332 312.532 457.599 315.884Z" fill="#535461"/>
<path d="M565.986 352.466C565.986 352.466 537.166 356.731 509.661 359.888C499.147 361.095 488.829 362.139 480.383 362.718L479.206 362.8C475.939 363.012 472.908 363.151 470.335 363.2C466.25 363.273 463.195 363.093 461.667 362.604L469.616 314.685C469.616 314.685 479.419 314.791 493.919 315.5L497.088 315.672C500.103 315.843 503.28 316.039 506.597 316.267C511.335 316.593 516.327 316.985 521.473 317.458C546.323 319.734 574.474 323.82 592.299 331.177C630.228 346.854 565.986 352.466 565.986 352.466Z" fill="#535461"/>
<path d="M698.816 376.568V389.357C698.816 389.357 678.123 389.651 682.559 385.524C685.43 382.783 688.036 379.779 690.344 376.552L698.816 376.568Z" fill="#535461"/>
<path d="M729.817 388.052L713.013 389.366V373.991C713.013 373.991 720.798 363.069 728.584 375.173L729.033 375.883L729.817 388.052Z" fill="#535461"/>
<path d="M197.193 497.537C223.753 497.537 245.285 476.039 245.285 449.519C245.285 423 223.753 401.502 197.193 401.502C170.633 401.502 149.102 423 149.102 449.519C149.102 476.039 170.633 497.537 197.193 497.537Z" fill="#3F3F3F"/>
<path d="M235.768 449.479C235.785 459.387 231.99 468.923 225.167 476.118C218.344 483.313 209.014 487.616 199.104 488.138C189.195 488.661 179.463 485.363 171.918 478.926C164.374 472.49 159.594 463.405 158.566 453.551C157.538 443.696 160.34 433.823 166.394 425.972C172.447 418.121 181.29 412.891 191.095 411.363C200.9 409.836 210.918 412.126 219.079 417.763C227.241 423.399 232.923 431.949 234.951 441.649C235.489 444.224 235.763 446.848 235.768 449.479Z" fill="#535461"/>
<path opacity="0.5" d="M197.136 482.659C215.449 482.659 230.294 467.8 230.294 449.471C230.294 431.141 215.449 416.282 197.136 416.282C178.823 416.282 163.978 431.141 163.978 449.471C163.978 467.8 178.823 482.659 197.136 482.659Z" fill="#CEAE57"/>
<path d="M208.23 412.424V413.827L197.193 450.311L188.338 411.82C194.908 410.291 201.765 410.499 208.23 412.424Z" fill="#535461"/>
<path d="M208.148 486.55C201.827 488.419 195.133 488.649 188.697 487.219L197.185 450.311L208.148 486.55Z" fill="#535461"/>
<path d="M235.768 449.479C235.773 453.504 235.15 457.505 233.922 461.338H233.766L197.226 450.319L235.016 441.657C235.53 444.232 235.782 446.853 235.768 449.479Z" fill="#535461"/>
<path d="M197.193 450.311L160.653 461.33H160.367C158.332 454.96 157.969 448.174 159.313 441.624L197.193 450.311Z" fill="#535461"/>
<path d="M197.136 453.704C199.478 453.704 201.376 451.808 201.376 449.471C201.376 447.133 199.478 445.237 197.136 445.237C194.795 445.237 192.896 447.133 192.896 449.471C192.896 451.808 194.795 453.704 197.136 453.704Z" fill="#535461"/>
<path d="M629.885 497.537C656.445 497.537 677.976 476.039 677.976 449.519C677.976 423 656.445 401.502 629.885 401.502C603.325 401.502 581.793 423 581.793 449.519C581.793 476.039 603.325 497.537 629.885 497.537Z" fill="#3F3F3F"/>
<path d="M668.467 449.479C668.485 459.387 664.69 468.923 657.867 476.118C651.044 483.313 641.714 487.616 631.804 488.138C621.894 488.661 612.162 485.363 604.618 478.926C597.074 472.49 592.294 463.405 591.266 453.551C590.237 443.696 593.04 433.823 599.093 425.972C605.147 418.121 613.989 412.891 623.794 411.363C633.599 409.836 643.617 412.126 651.779 417.763C659.941 423.399 665.622 431.949 667.65 441.649C668.188 444.224 668.462 446.848 668.467 449.479Z" fill="#535461"/>
<path opacity="0.5" d="M629.836 482.659C648.149 482.659 662.994 467.8 662.994 449.471C662.994 431.141 648.149 416.282 629.836 416.282C611.523 416.282 596.677 431.141 596.677 449.471C596.677 467.8 611.523 482.659 629.836 482.659Z" fill="#CEAE57"/>
<path d="M640.921 412.424V413.827L629.885 450.311L621.029 411.82C627.6 410.291 634.456 410.499 640.921 412.424Z" fill="#535461"/>
<path d="M640.848 486.55C634.526 488.419 627.832 488.649 621.397 487.219L629.885 450.311L640.848 486.55Z" fill="#535461"/>
<path d="M668.467 449.479C668.473 453.504 667.85 457.505 666.621 461.338H666.433L629.885 450.311L667.675 441.648C668.203 444.225 668.469 446.849 668.467 449.479Z" fill="#535461"/>
<path d="M629.885 450.311L593.344 461.33H593.059C591.024 454.96 590.661 448.174 592.005 441.624L629.885 450.311Z" fill="#535461"/>
<path d="M629.836 453.704C632.177 453.704 634.076 451.808 634.076 449.471C634.076 447.133 632.177 445.237 629.836 445.237C627.494 445.237 625.596 447.133 625.596 449.471C625.596 451.808 627.494 453.704 629.836 453.704Z" fill="#535461"/>
<path opacity="0.2" d="M348.362 341.772L336.28 366.087H322.924L331.852 350.745C336.778 347.89 342.325 344.847 348.362 341.772Z" fill="white"/>
<path opacity="0.2" d="M381.512 327.181L369.479 366.062H351.72L366.179 333.322C371.113 331.185 376.243 329.13 381.512 327.181Z" fill="white"/>
<path opacity="0.2" d="M506.613 316.308L480.399 362.726L479.222 362.808C475.955 363.02 472.924 363.159 470.351 363.208L493.935 315.549L497.105 315.721C500.078 315.884 503.28 316.08 506.613 316.308Z" fill="white"/>
<path opacity="0.2" d="M308.252 365.924L293.286 468.85L418.281 466.118L438.802 366.372L308.252 365.924Z" stroke="white" stroke-miterlimit="10"/>
<path opacity="0.5" d="M540.482 473.858C538.677 474.674 534.421 476.827 533.808 480.212H254.736L249.018 480.163C250.233 478.127 251.325 476.018 252.286 473.85L540.482 473.858Z" fill="#18218A"/>
<path d="M299.209 548.237C301.112 546.467 302.901 544.379 303.457 541.843C304.012 539.306 302.926 536.255 300.491 535.317C297.771 534.273 294.855 536.133 292.649 538.066C290.443 539.999 287.911 542.144 285.027 541.737C286.512 540.392 287.623 538.685 288.252 536.784C288.88 534.883 289.005 532.852 288.613 530.888C288.487 530.078 288.142 529.317 287.617 528.686C286.106 527.055 283.361 527.765 281.555 529.037C275.837 533.115 274.203 540.888 274.162 547.919C273.582 545.383 274.073 542.74 274.056 540.138C274.04 537.536 273.329 534.657 271.132 533.254C269.763 532.519 268.224 532.159 266.671 532.21C264.082 532.112 261.198 532.373 259.434 534.265C257.236 536.614 257.8 540.554 259.719 543.139C261.639 545.725 264.539 547.348 267.211 549.134C269.355 550.411 271.184 552.153 272.561 554.232C272.725 554.523 272.859 554.829 272.962 555.146H289.185C292.823 553.305 296.195 550.981 299.209 548.237Z" fill="#3A5F0B"/>
<path d="M638.299 561.956C639.796 560.738 640.887 559.094 641.428 557.242C641.836 555.366 641.036 553.123 639.238 552.438C637.229 551.671 635.08 553.058 633.455 554.469C631.829 555.88 629.958 557.479 627.826 557.177C628.922 556.185 629.742 554.927 630.206 553.524C630.67 552.122 630.762 550.624 630.473 549.175C630.381 548.575 630.127 548.011 629.738 547.544C628.619 546.353 626.601 546.867 625.261 547.805C621.013 550.79 619.829 556.549 619.804 561.736C619.379 559.868 619.739 557.919 619.722 556.027C619.706 554.134 619.183 551.948 617.566 550.953C616.563 550.415 615.436 550.148 614.298 550.179C612.387 550.105 610.263 550.301 608.956 551.696C607.322 553.425 607.755 556.337 609.168 558.221C610.581 560.105 612.722 561.32 614.698 562.642C616.283 563.582 617.634 564.867 618.652 566.402C618.772 566.615 618.871 566.838 618.946 567.07H630.914C633.595 565.706 636.08 563.986 638.299 561.956Z" fill="#3A5F0B"/>
<path d="M691.398 587.902C692.895 586.684 693.986 585.039 694.527 583.188C694.935 581.312 694.135 579.069 692.337 578.384C690.328 577.617 688.179 579.003 686.554 580.415C684.928 581.826 683.057 583.424 680.925 583.123C682.021 582.131 682.841 580.872 683.305 579.47C683.769 578.068 683.861 576.569 683.572 575.121C683.48 574.521 683.226 573.957 682.837 573.49C681.718 572.299 679.7 572.813 678.36 573.751C674.112 576.736 672.928 582.494 672.903 587.682C672.478 585.814 672.838 583.865 672.822 581.972C672.805 580.08 672.282 577.894 670.665 576.899C669.662 576.361 668.535 576.094 667.397 576.124C665.486 576.051 663.362 576.247 662.055 577.641C660.421 579.371 660.854 582.282 662.267 584.167C663.68 586.051 665.821 587.266 667.798 588.587C669.382 589.528 670.733 590.813 671.751 592.348C671.871 592.56 671.97 592.784 672.045 593.016H684.013C686.695 591.652 689.179 589.932 691.398 587.902Z" fill="#3A5F0B"/>
</g>
<defs>
<clipPath id="clip0">
<rect width="809" height="593" fill="white"/>
</clipPath>
</defs>
</svg>
