<svg width="774" height="593" viewBox="0 0 774 593" fill="none" xmlns="http://www.w3.org/2000/svg">
<g clip-path="url(#clip0)">
<path opacity="0.1" d="M132.113 87.2006C127.971 92.2243 126.376 99.2876 124.593 105.928C110.232 159.443 74.8463 202.487 34.5474 233.233C17.4816 246.257 -3.29516 263.723 0.438455 287.073C2.44886 299.613 11.269 308.845 17.8217 319.058C31.5696 340.445 36.0287 369.514 29.476 395.115C22.0239 424.245 1.19425 451.425 7.64116 480.88C11.6166 499.01 25.1151 511.913 38.0921 523.003C58.3372 540.292 79.2273 556.488 100.762 571.592C115.198 581.715 130.556 591.566 147.38 592.85C162.193 593.983 176.704 588.355 190.77 582.803C203.059 577.945 215.658 572.891 225.582 563.161C232.059 556.808 237.221 548.612 244.416 543.414C261.315 531.207 283.022 538.942 302.4 544.17C348.126 556.438 397.063 551.958 440.574 531.524C507.319 500.173 558.191 434.337 623.476 399.013C651.547 383.822 682.081 374.394 708.072 354.828C722.716 343.688 735.3 330.077 745.257 314.609C764.908 284.308 775.534 245.675 772.466 207.858C769.397 170.041 752.203 133.599 725.198 112.251C696.289 89.3989 659.777 85.1307 626.885 71.4121C592.935 57.225 562.718 32.8547 529.093 17.663C501.867 5.38984 472.237 -0.633793 442.377 0.0341975C412.518 0.702188 383.187 8.04485 356.538 21.5233C319.92 40.0314 282.818 83.2119 242.035 86.4905C212.983 88.7568 154.802 59.6877 132.113 87.2006Z" fill="#FFBA00"/>
<path d="M656.127 262.196C656.127 262.196 645.122 224.84 658.19 197.349C663.748 185.852 665.424 172.863 662.966 160.333C661.753 154.394 659.997 148.578 657.721 142.958" stroke="#535461" stroke-width="2" stroke-miterlimit="10"/>
<path d="M665.891 125.591C665.891 130.169 657.578 143.442 657.578 143.442C657.578 143.442 649.264 130.169 649.264 125.591C649.18 124.451 649.331 123.306 649.71 122.227C650.088 121.149 650.685 120.16 651.463 119.323C652.241 118.485 653.184 117.817 654.232 117.36C655.28 116.903 656.412 116.668 657.555 116.668C658.698 116.668 659.83 116.903 660.878 117.36C661.926 117.817 662.869 118.485 663.647 119.323C664.425 120.16 665.022 121.149 665.4 122.227C665.779 123.306 665.93 124.451 665.846 125.591H665.891Z" fill="#3A5F0B"/>
<path d="M679.564 150.943C677.077 154.788 662.868 161.429 662.868 161.429C662.868 161.429 663.125 145.784 665.612 141.938C666.877 140.258 668.732 139.119 670.804 138.752C672.875 138.384 675.009 138.816 676.775 139.959C678.541 141.102 679.808 142.872 680.32 144.912C680.832 146.952 680.551 149.11 679.534 150.951L679.564 150.943Z" fill="#3A5F0B"/>
<path d="M678.967 194.282C674.878 196.345 659.316 194.917 659.316 194.917C659.316 194.917 667.441 181.538 671.53 179.476C673.468 178.671 675.64 178.63 677.608 179.359C679.576 180.089 681.195 181.535 682.14 183.409C683.086 185.282 683.287 187.443 682.704 189.459C682.121 191.474 680.796 193.195 678.997 194.275L678.967 194.282Z" fill="#3A5F0B"/>
<path d="M671.129 227C667.448 229.72 651.834 230.951 651.834 230.951C651.834 230.951 657.578 216.394 661.266 213.667C663.041 212.589 665.155 212.214 667.193 212.616C669.23 213.018 671.044 214.167 672.276 215.838C673.508 217.509 674.07 219.581 673.851 221.645C673.631 223.71 672.647 225.617 671.091 226.993L671.129 227Z" fill="#3A5F0B"/>
<path d="M645.485 162.312C648.773 165.5 664.077 168.809 664.077 168.809C664.077 168.809 660.298 153.617 657.041 150.422C656.281 149.57 655.354 148.884 654.317 148.407C653.28 147.929 652.155 147.67 651.014 147.646C649.872 147.622 648.738 147.833 647.682 148.266C646.625 148.699 645.669 149.345 644.874 150.164C644.078 150.982 643.46 151.956 643.057 153.024C642.655 154.092 642.477 155.231 642.534 156.371C642.591 157.511 642.883 158.627 643.391 159.649C643.898 160.671 644.611 161.578 645.485 162.312Z" fill="#3A5F0B"/>
<path d="M636.801 200.658C640.89 202.721 656.452 201.293 656.452 201.293C656.452 201.293 648.327 187.914 644.238 185.852C642.299 185.047 640.128 185.006 638.16 185.735C636.192 186.464 634.572 187.911 633.627 189.784C632.682 191.658 632.481 193.819 633.064 195.835C633.647 197.85 634.971 199.571 636.771 200.651L636.801 200.658Z" fill="#3A5F0B"/>
<path d="M633.475 239.087C637.156 241.807 652.771 243.038 652.771 243.038C652.771 243.038 647.027 228.481 643.339 225.754C642.474 224.989 641.46 224.413 640.361 224.062C639.261 223.711 638.101 223.593 636.953 223.715C635.805 223.836 634.696 224.196 633.694 224.77C632.693 225.344 631.823 226.12 631.138 227.048C630.453 227.977 629.969 229.038 629.717 230.163C629.465 231.289 629.451 232.455 629.674 233.587C629.898 234.719 630.354 235.791 631.015 236.737C631.676 237.683 632.527 238.48 633.513 239.079L633.475 239.087Z" fill="#3A5F0B"/>
<path opacity="0.1" d="M665.891 125.591C665.891 130.169 657.578 143.442 657.578 143.442C657.578 143.442 649.264 130.169 649.264 125.591C649.18 124.451 649.331 123.306 649.71 122.227C650.088 121.149 650.685 120.16 651.463 119.323C652.241 118.485 653.184 117.817 654.232 117.36C655.28 116.903 656.412 116.668 657.555 116.668C658.698 116.668 659.83 116.903 660.878 117.36C661.926 117.817 662.869 118.485 663.647 119.323C664.425 120.16 665.022 121.149 665.4 122.227C665.779 123.306 665.93 124.451 665.846 125.591H665.891Z" fill="#3A5F0B"/>
<path opacity="0.1" d="M679.564 150.943C677.077 154.788 662.868 161.429 662.868 161.429C662.868 161.429 663.125 145.784 665.612 141.938C666.877 140.258 668.732 139.119 670.804 138.752C672.875 138.384 675.009 138.816 676.775 139.959C678.541 141.102 679.808 142.872 680.32 144.912C680.832 146.952 680.551 149.11 679.534 150.951L679.564 150.943Z" fill="#6C63FF"/>
<path opacity="0.1" d="M678.967 194.282C674.878 196.345 659.316 194.917 659.316 194.917C659.316 194.917 667.441 181.538 671.53 179.476C673.468 178.671 675.64 178.63 677.608 179.359C679.576 180.089 681.195 181.535 682.14 183.409C683.086 185.282 683.287 187.443 682.704 189.459C682.121 191.474 680.796 193.195 678.997 194.275L678.967 194.282Z" fill="#6C63FF"/>
<path opacity="0.1" d="M671.129 227C667.448 229.72 651.834 230.951 651.834 230.951C651.834 230.951 657.578 216.394 661.266 213.667C663.041 212.589 665.155 212.214 667.193 212.616C669.23 213.018 671.044 214.167 672.276 215.838C673.508 217.509 674.07 219.581 673.851 221.645C673.631 223.71 672.647 225.617 671.091 226.993L671.129 227Z" fill="#6C63FF"/>
<path opacity="0.1" d="M645.485 162.312C648.773 165.5 664.077 168.809 664.077 168.809C664.077 168.809 660.298 153.617 657.041 150.422C656.281 149.57 655.354 148.884 654.317 148.407C653.28 147.929 652.155 147.67 651.014 147.646C649.872 147.622 648.738 147.833 647.682 148.266C646.625 148.699 645.669 149.345 644.874 150.164C644.078 150.982 643.46 151.956 643.057 153.024C642.655 154.092 642.477 155.231 642.534 156.371C642.591 157.511 642.883 158.627 643.391 159.649C643.898 160.671 644.611 161.578 645.485 162.312Z" fill="#6C63FF"/>
<path opacity="0.1" d="M636.801 200.658C640.89 202.721 656.452 201.293 656.452 201.293C656.452 201.293 648.327 187.914 644.238 185.852C642.299 185.047 640.128 185.006 638.16 185.735C636.192 186.464 634.572 187.911 633.627 189.784C632.682 191.658 632.481 193.819 633.064 195.835C633.647 197.85 634.971 199.571 636.771 200.651L636.801 200.658Z" fill="#6C63FF"/>
<path opacity="0.1" d="M633.475 239.087C637.156 241.807 652.771 243.038 652.771 243.038C652.771 243.038 647.027 228.481 643.339 225.754C642.474 224.989 641.46 224.413 640.361 224.062C639.261 223.711 638.101 223.593 636.953 223.715C635.805 223.836 634.696 224.196 633.694 224.77C632.693 225.344 631.823 226.12 631.138 227.048C630.453 227.977 629.969 229.038 629.717 230.163C629.465 231.289 629.451 232.455 629.674 233.587C629.898 234.719 630.354 235.791 631.015 236.737C631.676 237.683 632.527 238.48 633.513 239.079L633.475 239.087Z" fill="#6C63FF"/>
<path d="M702.23 321.875C702.23 321.875 691.225 284.519 704.293 257.029C709.851 245.532 711.527 232.543 709.07 220.012C707.856 214.073 706.1 208.257 703.825 202.637" stroke="#535461" stroke-width="2" stroke-miterlimit="10"/>
<path d="M711.995 185.27C711.995 189.848 703.681 203.121 703.681 203.121C703.681 203.121 695.367 189.848 695.367 185.27C695.283 184.13 695.435 182.985 695.813 181.907C696.192 180.828 696.789 179.839 697.567 179.002C698.345 178.164 699.287 177.496 700.336 177.04C701.384 176.583 702.515 176.347 703.658 176.347C704.802 176.347 705.933 176.583 706.981 177.04C708.029 177.496 708.972 178.164 709.75 179.002C710.528 179.839 711.125 180.828 711.504 181.907C711.882 182.985 712.034 184.13 711.949 185.27H711.995Z" fill="#3A5F0B"/>
<path d="M725.667 210.622C723.18 214.468 709.002 221.1 709.002 221.1C709.002 221.1 709.259 205.455 711.745 201.61C712.297 200.612 713.048 199.738 713.952 199.042C714.856 198.347 715.894 197.845 717 197.567C718.107 197.29 719.259 197.243 720.384 197.43C721.51 197.616 722.585 198.033 723.542 198.653C724.5 199.272 725.32 200.083 725.951 201.033C726.581 201.983 727.01 203.053 727.209 204.176C727.408 205.298 727.374 206.45 727.109 207.559C726.844 208.668 726.353 209.711 725.667 210.622Z" fill="#3A5F0B"/>
<path d="M725.07 253.962C720.981 256.024 705.419 254.596 705.419 254.596C705.419 254.596 713.544 241.217 717.633 239.155C718.613 238.567 719.704 238.187 720.838 238.039C721.972 237.892 723.124 237.979 724.222 238.297C725.32 238.614 726.341 239.154 727.221 239.884C728.101 240.614 728.821 241.517 729.336 242.537C729.85 243.558 730.149 244.673 730.213 245.814C730.277 246.955 730.105 248.097 729.708 249.168C729.31 250.24 728.696 251.218 727.903 252.041C727.11 252.865 726.156 253.516 725.1 253.954L725.07 253.962Z" fill="#3A5F0B"/>
<path d="M717.232 286.679C713.552 289.399 697.937 290.63 697.937 290.63C697.937 290.63 703.681 276.073 707.369 273.346C709.144 272.268 711.259 271.893 713.296 272.295C715.334 272.697 717.147 273.846 718.379 275.518C719.611 277.189 720.173 279.26 719.954 281.325C719.735 283.389 718.75 285.296 717.195 286.672L717.232 286.679Z" fill="#3A5F0B"/>
<path d="M691.588 221.992C694.876 225.18 710.181 228.488 710.181 228.488C710.181 228.488 706.402 213.297 703.144 210.101C701.536 208.748 699.474 208.055 697.375 208.161C695.275 208.266 693.294 209.163 691.829 210.67C690.364 212.177 689.525 214.183 689.48 216.283C689.436 218.384 690.189 220.424 691.588 221.992Z" fill="#3A5F0B"/>
<path d="M682.904 260.337C686.993 262.4 702.555 260.972 702.555 260.972C702.555 260.972 694.43 247.593 690.341 245.531C688.403 244.726 686.231 244.685 684.263 245.414C682.295 246.144 680.676 247.59 679.73 249.464C678.785 251.337 678.584 253.498 679.167 255.514C679.75 257.529 681.074 259.25 682.874 260.33L682.904 260.337Z" fill="#6C63FF"/>
<path d="M679.579 298.766C683.26 301.486 698.874 302.717 698.874 302.717C698.874 302.717 693.13 288.16 689.442 285.433C688.577 284.669 687.563 284.093 686.464 283.742C685.364 283.391 684.204 283.272 683.056 283.394C681.909 283.516 680.799 283.875 679.798 284.449C678.797 285.023 677.926 285.799 677.241 286.727C676.557 287.656 676.073 288.717 675.821 289.843C675.569 290.968 675.554 292.134 675.777 293.266C676.001 294.398 676.458 295.471 677.119 296.416C677.78 297.362 678.63 298.16 679.617 298.759L679.579 298.766Z" fill="#6C63FF"/>
<path opacity="0.1" d="M711.995 185.27C711.995 189.848 703.681 203.121 703.681 203.121C703.681 203.121 695.367 189.848 695.367 185.27C695.283 184.13 695.435 182.985 695.813 181.907C696.192 180.828 696.789 179.839 697.567 179.002C698.345 178.164 699.287 177.496 700.336 177.04C701.384 176.583 702.515 176.347 703.658 176.347C704.802 176.347 705.933 176.583 706.981 177.04C708.029 177.496 708.972 178.164 709.75 179.002C710.528 179.839 711.125 180.828 711.504 181.907C711.882 182.985 712.034 184.13 711.949 185.27H711.995Z" fill="#6C63FF"/>
<path opacity="0.1" d="M725.667 210.622C723.18 214.468 709.002 221.1 709.002 221.1C709.002 221.1 709.259 205.455 711.745 201.61C712.297 200.612 713.048 199.738 713.952 199.042C714.856 198.347 715.894 197.845 717 197.567C718.107 197.29 719.259 197.243 720.384 197.43C721.51 197.616 722.585 198.033 723.542 198.653C724.5 199.272 725.32 200.083 725.951 201.033C726.581 201.983 727.01 203.053 727.209 204.176C727.408 205.298 727.374 206.45 727.109 207.559C726.844 208.668 726.353 209.711 725.667 210.622Z" fill="#6C63FF"/>
<path opacity="0.1" d="M725.07 253.962C720.981 256.024 705.419 254.596 705.419 254.596C705.419 254.596 713.544 241.217 717.633 239.155C718.613 238.567 719.704 238.187 720.838 238.039C721.972 237.892 723.124 237.979 724.222 238.297C725.32 238.614 726.341 239.154 727.221 239.884C728.101 240.614 728.821 241.517 729.336 242.537C729.85 243.558 730.149 244.673 730.213 245.814C730.277 246.955 730.105 248.097 729.708 249.168C729.31 250.24 728.696 251.218 727.903 252.041C727.11 252.865 726.156 253.516 725.1 253.954L725.07 253.962Z" fill="#6C63FF"/>
<path opacity="0.1" d="M717.232 286.679C713.552 289.399 697.937 290.63 697.937 290.63C697.937 290.63 703.681 276.073 707.369 273.346C709.144 272.268 711.259 271.893 713.296 272.295C715.334 272.697 717.147 273.846 718.379 275.518C719.611 277.189 720.173 279.26 719.954 281.325C719.735 283.389 718.75 285.296 717.195 286.672L717.232 286.679Z" fill="#6C63FF"/>
<path opacity="0.1" d="M691.588 221.992C694.876 225.18 710.181 228.488 710.181 228.488C710.181 228.488 706.402 213.297 703.144 210.101C701.536 208.748 699.474 208.055 697.375 208.161C695.275 208.266 693.294 209.163 691.829 210.67C690.364 212.177 689.525 214.183 689.48 216.283C689.436 218.384 690.189 220.424 691.588 221.992Z" fill="#6C63FF"/>
<path opacity="0.1" d="M682.904 260.337C686.993 262.4 702.555 260.972 702.555 260.972C702.555 260.972 694.43 247.593 690.341 245.531C688.403 244.726 686.231 244.685 684.263 245.414C682.295 246.144 680.676 247.59 679.73 249.464C678.785 251.337 678.584 253.498 679.167 255.514C679.75 257.529 681.074 259.25 682.874 260.33L682.904 260.337Z" fill="#6C63FF"/>
<path opacity="0.1" d="M679.579 298.766C683.26 301.486 698.874 302.717 698.874 302.717C698.874 302.717 693.13 288.16 689.442 285.433C688.577 284.669 687.563 284.093 686.464 283.742C685.364 283.391 684.204 283.272 683.056 283.394C681.909 283.516 680.799 283.875 679.798 284.449C678.797 285.023 677.926 285.799 677.241 286.727C676.557 287.656 676.073 288.717 675.821 289.843C675.569 290.968 675.554 292.134 675.777 293.266C676.001 294.398 676.458 295.471 677.119 296.416C677.78 297.362 678.63 298.16 679.617 298.759L679.579 298.766Z" fill="#6C63FF"/>
<path opacity="0.1" d="M408.085 446.771C613.372 426.761 777.177 383.764 773.954 350.736C770.732 317.707 601.702 307.154 396.415 327.164C191.129 347.175 27.3236 390.171 30.5461 423.2C33.7687 456.228 202.799 466.782 408.085 446.771Z" fill="#FFBA00"/>
<path d="M741.607 355.998C755.582 327.367 752.694 280.764 751.205 264.946C750.88 261.486 750.623 259.499 750.623 259.499C750.623 259.499 738.304 257.557 742.846 242.653C745.068 235.355 737.178 231.321 728.562 229.108C722.401 227.635 716.115 226.747 709.788 226.456L590.456 219.091C574.093 193.134 541.896 197.304 541.896 197.304C541.896 197.304 513.176 194.32 492.815 194.01C489.725 191.289 486.338 188.925 482.718 186.962C480.56 185.667 478.263 184.62 475.87 183.842C472.96 183.003 469.895 182.856 466.918 183.414C463.942 183.971 461.137 185.218 458.729 187.053C457.555 187.897 456.599 189.008 455.94 190.294C455.686 190.878 455.496 191.489 455.373 192.114C455.066 193.181 454.814 194.263 454.617 195.355C454.44 195.881 454.185 196.377 453.861 196.828C453.045 197.984 451.639 198.853 451.458 200.25C451.454 200.331 451.454 200.411 451.458 200.492C451.309 200.759 451.209 201.051 451.163 201.353C451.109 201.975 451.243 202.599 451.549 203.144C451.594 203.234 451.647 203.317 451.7 203.4C450.695 204.854 449.875 206.428 449.259 208.084C448.979 208.236 448.709 208.405 448.45 208.59L448.223 208.756V209.217L448.095 209.315L447.815 216.756L447.974 216.877C448.202 220.349 449.25 223.716 451.032 226.705C452.813 229.693 455.277 232.217 458.222 234.071C458.321 234.547 458.411 235.03 458.502 235.537C458.917 237.977 459.104 240.45 459.061 242.925H458.933C455.38 241.414 449.304 243.635 444.081 246.226H376.423C389.619 229.259 405.763 216.099 405.763 216.099V201.187C394.229 200.613 292.908 249.263 270.695 260.005L269.712 260.481L155.55 264.016C134.871 263.888 116.793 266.925 101.133 271.873C74.9639 280.089 51.4481 295.105 32.9904 315.386C19.5071 330.177 13.5968 342.4 13.5968 342.4L13.7253 343.428L13.5968 343.692L13.7782 343.851L16.8542 368.115L18.9705 384.81C4.26273 394.314 23.3163 398.121 23.3163 398.121C41.4553 413.668 70.6365 413.026 70.6365 413.026C77.7636 422.748 98.5101 421.449 98.5101 421.449H207.412C209.109 411.455 211.38 401.568 214.214 391.836C218.863 425.294 245.278 450.926 277.157 450.926C279.522 450.924 281.884 450.781 284.231 450.495C286.578 450.781 288.941 450.924 291.305 450.926C323.555 450.926 350.204 424.689 354.399 390.672H359.727C358.733 398.272 357.004 405.759 354.565 413.026C452.448 384.516 634.602 370.91 634.602 370.91C635.357 363.734 636.189 356.799 637.088 350.143C644.593 368.765 661.606 381.766 681.408 381.766C683.207 381.763 685.004 381.652 686.789 381.433C688.575 381.652 690.372 381.763 692.17 381.766C715.683 381.766 735.251 363.431 739.664 339.122C740.249 343.412 740.582 347.733 740.662 352.062C739.823 356.187 739.09 358.823 738.992 359.193C739.581 358.116 740.141 357.013 740.67 355.885C740.67 356.323 740.67 356.776 740.67 357.229C740.488 357.985 740.36 358.408 740.322 358.551L740.655 357.932C740.655 358.264 740.655 358.589 740.655 358.921C740.579 358.952 740.98 357.864 741.607 355.998Z" fill="url(#paint0_linear)"/>
<path d="M730.187 253.123H505.792V343.601H730.187V253.123Z" fill="#505051"/>
<path d="M448.737 210.751L480.609 282.117L543.725 278.294L546.272 248.983L548.184 214.573L458.94 208.197L448.737 210.751Z" fill="#535461"/>
<path d="M448.737 210.751C448.737 210.751 460.83 199.283 475.515 196.73C490.2 194.177 539.266 199.276 539.266 199.276L546.28 211.363L544.965 217.119L448.737 210.751Z" fill="#6C757D"/>
<path d="M569 247H343V314H569V247Z" fill="#535461"/>
<path d="M513.221 292.474C519.199 272.492 507.281 259.363 507.281 259.363L487.524 245.584C487.508 245.631 487.487 245.676 487.464 245.72C484.894 242.71 483.055 239.147 482.09 235.31C482.03 235.068 481.977 234.819 481.916 234.554C483.722 233.213 485.304 231.594 486.602 229.757C489.822 227.786 491.258 224.613 491.802 221.448C493.873 218.375 495.523 215.039 496.707 211.529C496.903 210.961 497.069 210.384 497.206 209.799C497.587 208.71 497.756 207.559 497.705 206.407C497.544 205.124 497.117 203.889 496.45 202.781C493.125 196.737 487.139 192.53 481.07 189.1C478.948 187.826 476.689 186.798 474.336 186.033C471.475 185.209 468.46 185.065 465.534 185.613C462.607 186.161 459.85 187.387 457.481 189.191C456.327 190.021 455.386 191.114 454.738 192.379C454.488 192.954 454.3 193.554 454.179 194.169C453.885 195.219 453.646 196.283 453.461 197.357C453.296 197.87 453.057 198.356 452.75 198.8C451.941 199.933 450.566 200.787 450.385 202.169C450.38 202.25 450.38 202.33 450.385 202.411C450.239 202.673 450.141 202.96 450.097 203.257C450.041 203.868 450.173 204.482 450.475 205.017C450.521 205.108 450.573 205.191 450.626 205.274C449.637 206.704 448.83 208.252 448.223 209.882C447.946 210.032 447.678 210.198 447.422 210.381L447.203 210.539V210.993L447.074 211.091L446.795 218.411L446.946 218.532C447.169 221.946 448.198 225.259 449.949 228.199C451.701 231.139 454.124 233.622 457.02 235.446C457.119 235.914 457.209 236.39 457.292 236.889C457.749 239.525 457.931 242.2 457.837 244.874C457.807 244.643 457.807 244.409 457.837 244.179C452.372 241.708 440.453 248.538 435.654 251.559C434.927 251.904 434.248 252.343 433.636 252.866L433.553 252.927C430.25 255.601 423.728 263.034 418.551 282.139C411.371 308.798 412.119 314.842 406.889 321.021C401.659 327.201 396.466 370.736 396.466 370.736L406.994 373.569L408.34 369.248C420.856 380.655 455.902 386.147 455.902 386.147L456.975 382.816C462.349 384.75 471.335 381.811 471.335 381.811C484.471 377.173 489.391 365.403 498.922 349.879C508.452 334.355 513.221 292.474 513.221 292.474ZM460.24 372.799L484.501 297.58C486.7 309.259 476.996 327.654 476.134 339.681C475.598 347.416 466.589 362.789 460.24 372.799Z" fill="url(#paint1_linear)"/>
<path d="M490.593 213.327C490.593 213.327 494.818 229.41 482.279 232.213C469.74 235.015 478.001 224.983 478.001 224.983L490.094 213.206L490.593 213.327Z" fill="black"/>
<path d="M438.171 251.658C438.171 251.658 428.844 255.435 421.989 280.878C415.134 306.321 415.815 312.062 410.879 317.977C405.944 323.892 400.888 365.396 400.888 365.396L410.758 368.055L419.352 340.315L442.985 267.038L438.171 251.658Z" fill="#CEAE57"/>
<path opacity="0.05" d="M438.171 251.658C438.171 251.658 428.844 255.435 421.989 280.878C415.134 306.321 415.815 312.062 410.879 317.977C405.944 323.892 400.888 365.396 400.888 365.396L410.758 368.055L419.352 340.315L442.985 267.038L438.171 251.658Z" fill="black"/>
<path d="M489.958 248.787C489.958 248.787 450.914 268.625 456.627 255.684C459.454 249.293 459.348 242.668 458.524 237.554C458.054 234.541 457.23 231.595 456.068 228.775C456.068 228.775 482.612 207.789 481.055 224.923C480.682 228.61 480.937 232.335 481.81 235.937C484.108 245.025 489.958 248.787 489.958 248.787Z" fill="#6F4F1D"/>
<path opacity="0.1" d="M481.81 235.967C479.3 237.983 476.347 239.376 473.195 240.032C470.042 240.689 466.779 240.59 463.671 239.744C461.854 239.256 460.112 238.521 458.494 237.561C458.024 234.549 457.2 231.602 456.038 228.783C456.038 228.783 482.581 207.797 481.024 224.93C480.659 228.627 480.925 232.359 481.81 235.967Z" fill="black"/>
<path d="M489.03 224.317C491.965 213.424 485.509 202.215 474.61 199.282C463.711 196.349 452.497 202.802 449.563 213.695C446.628 224.589 453.084 235.797 463.983 238.731C474.882 241.664 486.096 235.211 489.03 224.317Z" fill="#6F4F1D"/>
<path opacity="0.1" d="M459.031 209.044C458.47 209.386 457.846 209.611 457.196 209.707C456.546 209.802 455.883 209.765 455.248 209.597C454.613 209.43 454.018 209.136 453.499 208.734C452.98 208.331 452.548 207.827 452.229 207.253C451.948 206.741 451.827 206.157 451.881 205.576C452.055 204.262 453.355 203.446 454.148 202.358C455.38 200.598 455.146 198.188 456.038 196.231C456.652 195.036 457.537 194.002 458.623 193.21C460.832 191.484 463.418 190.305 466.17 189.769C468.922 189.233 471.761 189.356 474.457 190.127C476.662 190.847 478.777 191.817 480.76 193.021C486.444 196.262 492.044 200.228 495.12 205.992C495.743 207.049 496.14 208.225 496.284 209.444C496.318 210.761 496.087 212.071 495.604 213.297C494.467 216.682 492.883 219.901 490.895 222.868C490.23 222.042 489.395 221.37 488.446 220.896C487.967 220.67 487.43 220.6 486.909 220.696C486.388 220.793 485.91 221.05 485.544 221.433C484.887 222.271 484.486 223.873 483.488 223.495C482.838 223.253 482.846 222.354 482.876 221.659C483.012 218.638 481.365 215.79 479.15 213.75C476.936 211.71 474.192 210.366 471.486 209.044C469.544 208.092 466.952 205.908 464.82 205.523C462.175 205.032 460.928 207.873 459.031 209.044Z" fill="black"/>
<path d="M459.31 208.009C458.75 208.351 458.126 208.576 457.476 208.672C456.826 208.767 456.163 208.73 455.528 208.563C454.892 208.395 454.297 208.101 453.778 207.699C453.26 207.296 452.828 206.792 452.508 206.218C452.228 205.706 452.107 205.122 452.161 204.541C452.334 203.227 453.634 202.411 454.428 201.323C455.66 199.563 455.426 197.153 456.318 195.196C456.932 194.001 457.817 192.967 458.902 192.175C461.111 190.449 463.697 189.27 466.449 188.734C469.201 188.198 472.041 188.321 474.736 189.093C476.942 189.812 479.057 190.783 481.039 191.986C486.723 195.227 492.323 199.193 495.4 204.957C496.023 206.014 496.419 207.19 496.563 208.409C496.598 209.726 496.366 211.036 495.883 212.262C494.746 215.647 493.163 218.866 491.175 221.833C490.51 221.008 489.674 220.335 488.726 219.861C488.247 219.635 487.709 219.565 487.188 219.661C486.667 219.758 486.19 220.015 485.824 220.398C485.166 221.236 484.766 222.838 483.768 222.46C483.118 222.218 483.125 221.319 483.156 220.624C483.292 217.603 481.644 214.755 479.43 212.715C477.215 210.675 474.472 209.331 471.766 208.009C469.824 207.057 467.231 204.874 465.1 204.488C462.455 203.99 461.207 206.838 459.31 208.009Z" fill="black"/>
<path d="M470.013 251.491C470.013 251.491 486.179 248.326 486.882 245.735L505.368 258.781C505.368 258.781 516.494 271.238 510.803 290.305C510.803 290.305 506.17 330.26 497.161 345.089C488.152 359.919 482.974 379.129 470.632 383.617C470.632 383.617 458.766 375.972 454.851 376.062C454.851 376.062 474.948 346.955 475.809 335.495C476.671 324.036 485.854 306.464 483.844 295.344L456.635 379.877C456.635 379.877 412.799 373.078 408.355 358.536C408.355 358.536 412.134 352.863 411.431 347.114C410.728 341.365 427.968 298.117 427.968 298.117L436.221 253.017C436.221 253.017 452.546 241.618 459.046 244.579C459.016 244.534 457.837 250.162 470.013 251.491Z" fill="#CEAE57"/>
<g opacity="0.1">
<path opacity="0.1" d="M475.9 216.424C471.91 210.985 464.299 215.45 463.052 216.228L461.094 216.031C459.386 214.173 454.148 209.232 449.228 212.866L449.017 213.025L448.722 219.997L448.933 220.163C450.355 221.26 451.966 222.085 453.687 222.596C454.777 222.916 455.927 222.973 457.043 222.762C457.869 222.572 458.643 222.202 459.31 221.68C459.977 221.158 460.522 220.496 460.905 219.74L461.926 219.808L462.681 219.665C462.833 220.468 463.154 221.23 463.623 221.9C464.092 222.569 464.699 223.131 465.402 223.548C468.781 225.459 473.716 223.548 473.92 223.51L474.177 223.412L475.991 216.666L475.9 216.424ZM473.338 222.558C472.333 222.898 468.539 224.016 465.992 222.558C465.358 222.161 464.823 221.623 464.43 220.987C464.037 220.35 463.795 219.632 463.724 218.887L463.634 218.335L461.978 218.675L460.316 218.615L460.157 218.932C459.854 219.618 459.397 220.226 458.822 220.708C458.246 221.19 457.568 221.533 456.839 221.712C453.99 222.324 450.694 220.118 449.833 219.491L450.082 213.599C454.36 210.721 459.076 215.389 460.437 216.915L460.58 217.074L463.339 217.346L463.505 217.232C463.581 217.187 470.436 212.586 474.343 216.288C474.537 216.468 474.716 216.662 474.88 216.87L473.338 222.558Z" fill="black"/>
<path opacity="0.1" d="M488.28 219.929L475.432 218.864L474.373 218.66L474.85 216.877C474.686 216.67 474.507 216.475 474.313 216.296L475.87 216.447L486.383 217.474L488.28 219.929Z" fill="black"/>
</g>
<path d="M476.036 215.941C472.046 210.501 464.435 214.966 463.188 215.744L461.23 215.548C459.522 213.689 454.284 208.749 449.364 212.382L449.153 212.541L448.858 219.514L449.07 219.68C450.491 220.777 452.102 221.601 453.823 222.112C454.913 222.433 456.063 222.49 457.179 222.279C458.005 222.088 458.779 221.719 459.446 221.197C460.114 220.675 460.658 220.012 461.041 219.257L462.062 219.325L462.817 219.181C462.969 219.985 463.29 220.747 463.759 221.416C464.228 222.086 464.835 222.648 465.538 223.064C468.917 224.976 473.852 223.064 474.056 223.027L474.313 222.928L476.127 216.182L476.036 215.941ZM473.474 222.075C472.469 222.415 468.675 223.533 466.128 222.075C465.494 221.677 464.959 221.14 464.566 220.503C464.173 219.866 463.931 219.148 463.86 218.403L463.77 217.852L462.115 218.192L460.474 218.086L460.316 218.403C460.018 219.093 459.565 219.706 458.992 220.193C458.419 220.68 457.742 221.029 457.013 221.213C454.164 221.825 450.868 219.62 450.007 218.993L450.256 213.1C454.534 210.222 459.25 214.891 460.61 216.416L460.754 216.575L463.513 216.847L463.679 216.734C463.755 216.688 470.61 212.088 474.517 215.789C474.711 215.969 474.89 216.164 475.054 216.371L473.474 222.075Z" fill="#472727"/>
<path d="M488.401 219.446L475.598 218.381L474.54 218.177L475.016 216.394C474.852 216.186 474.673 215.992 474.479 215.812L476.036 215.963L486.549 216.991L488.401 219.446Z" fill="#472727"/>
<path d="M400.6 299H176.206V389.479H400.6V299Z" fill="#3F3F3F"/>
<path d="M278.903 448.735C313.485 448.735 341.52 418.069 341.52 380.24C341.52 342.411 313.485 311.745 278.903 311.745C244.32 311.745 216.285 342.411 216.285 380.24C216.285 418.069 244.32 448.735 278.903 448.735Z" fill="#505051"/>
<path opacity="0.05" d="M278.903 448.735C313.485 448.735 341.52 418.069 341.52 380.24C341.52 342.411 313.485 311.745 278.903 311.745C244.32 311.745 216.285 342.411 216.285 380.24C216.285 418.069 244.32 448.735 278.903 448.735Z" fill="black"/>
<path d="M292.817 448.735C327.4 448.735 355.434 418.069 355.434 380.24C355.434 342.411 327.4 311.745 292.817 311.745C258.234 311.745 230.199 342.411 230.199 380.24C230.199 418.069 258.234 448.735 292.817 448.735Z" fill="#505051"/>
<path opacity="0.05" d="M291.426 408.402C306.795 408.402 319.255 395.949 319.255 380.587C319.255 365.225 306.795 352.772 291.426 352.772C276.057 352.772 263.598 365.225 263.598 380.587C263.598 395.949 276.057 408.402 291.426 408.402Z" fill="black"/>
<path d="M291.426 388.935C296.039 388.935 299.778 385.197 299.778 380.587C299.778 375.977 296.039 372.24 291.426 372.24C286.814 372.24 283.075 375.977 283.075 380.587C283.075 385.197 286.814 388.935 291.426 388.935Z" stroke="#6F7D95" stroke-width="2" stroke-miterlimit="10"/>
<path d="M291.426 368.07C292.578 368.07 293.512 367.136 293.512 365.985C293.512 364.833 292.578 363.9 291.426 363.9C290.274 363.9 289.34 364.833 289.34 365.985C289.34 367.136 290.274 368.07 291.426 368.07Z" fill="#6F7D95"/>
<path d="M304.182 371.608C305.064 370.868 305.179 369.553 304.439 368.671C303.698 367.789 302.383 367.674 301.5 368.414C300.618 369.154 300.502 370.469 301.243 371.351C301.983 372.233 303.299 372.348 304.182 371.608Z" fill="#6F7D95"/>
<path d="M309.162 381.705C309.362 380.571 308.605 379.489 307.47 379.289C306.336 379.089 305.254 379.846 305.054 380.981C304.854 382.115 305.611 383.196 306.746 383.396C307.88 383.596 308.962 382.839 309.162 381.705Z" fill="#6F7D95"/>
<path d="M302.188 393.697C303.185 393.121 303.527 391.846 302.951 390.849C302.375 389.852 301.099 389.51 300.102 390.086C299.104 390.661 298.762 391.937 299.338 392.934C299.914 393.931 301.19 394.273 302.188 393.697Z" fill="#6F7D95"/>
<path d="M291.205 394.826C291.599 393.743 291.04 392.547 289.958 392.153C288.875 391.759 287.678 392.317 287.284 393.399C286.89 394.481 287.448 395.678 288.531 396.072C289.614 396.466 290.811 395.908 291.205 394.826Z" fill="#6F7D95"/>
<path d="M280.601 388.386C281.684 387.993 282.242 386.796 281.848 385.714C281.454 384.632 280.257 384.074 279.175 384.468C278.092 384.862 277.534 386.058 277.928 387.14C278.322 388.222 279.519 388.78 280.601 388.386Z" fill="#6F7D95"/>
<path d="M281.575 375.361C282.151 374.364 281.809 373.088 280.811 372.513C279.813 371.937 278.537 372.279 277.961 373.276C277.385 374.273 277.727 375.548 278.725 376.124C279.723 376.7 280.999 376.358 281.575 375.361Z" fill="#6F7D95"/>
<path d="M742.748 327.307C740.609 342.068 734.661 358.226 734.661 358.226C734.701 357.219 734.726 356.225 734.737 355.243C734.737 353.973 734.737 352.719 734.737 351.465C733.981 310.778 711.798 285.675 697.491 273.656C693.773 270.489 689.773 267.667 685.542 265.225H724.428C724.428 265.225 739.725 296.447 742.914 311.737C743.836 316.028 743.579 321.565 742.748 327.307Z" fill="#6C757D"/>
<path opacity="0.05" d="M742.748 327.307C740.609 342.068 734.661 358.226 734.661 358.226C734.701 357.219 734.726 356.225 734.737 355.243C734.737 353.973 734.737 352.719 734.737 351.465C733.981 310.778 711.798 285.675 697.491 273.656C693.773 270.489 689.773 267.667 685.542 265.225H724.428C724.428 265.225 739.725 296.447 742.914 311.737C743.836 316.028 743.579 321.565 742.748 327.307Z" fill="black"/>
<path d="M676.45 380.723C702.751 380.723 724.072 357.4 724.072 328.629C724.072 299.857 702.751 276.534 676.45 276.534C650.149 276.534 628.827 299.857 628.827 328.629C628.827 357.4 650.149 380.723 676.45 380.723Z" fill="#505051"/>
<path opacity="0.05" d="M676.45 380.723C702.751 380.723 724.072 357.4 724.072 328.629C724.072 299.857 702.751 276.534 676.45 276.534C650.149 276.534 628.827 299.857 628.827 328.629C628.827 357.4 650.149 380.723 676.45 380.723Z" fill="black"/>
<path d="M687.031 380.723C713.332 380.723 734.654 357.4 734.654 328.629C734.654 299.857 713.332 276.534 687.031 276.534C660.73 276.534 639.408 299.857 639.408 328.629C639.408 357.4 660.73 380.723 687.031 380.723Z" fill="#505051"/>
<path opacity="0.05" d="M685.973 350.045C697.66 350.045 707.135 340.575 707.135 328.893C707.135 317.211 697.66 307.741 685.973 307.741C674.285 307.741 664.811 317.211 664.811 328.893C664.811 340.575 674.285 350.045 685.973 350.045Z" fill="black"/>
<path d="M685.973 335.239C689.479 335.239 692.322 332.398 692.322 328.893C692.322 325.388 689.479 322.547 685.973 322.547C682.467 322.547 679.624 325.388 679.624 328.893C679.624 332.398 682.467 335.239 685.973 335.239Z" stroke="#6F7D95" stroke-width="2" stroke-miterlimit="10"/>
<path d="M685.973 319.374C686.849 319.374 687.56 318.664 687.56 317.788C687.56 316.912 686.849 316.202 685.973 316.202C685.096 316.202 684.386 316.912 684.386 317.788C684.386 318.664 685.096 319.374 685.973 319.374Z" fill="#6F7D95"/>
<path d="M695.679 322.064C696.351 321.501 696.439 320.5 695.875 319.829C695.312 319.158 694.31 319.07 693.639 319.634C692.967 320.197 692.88 321.197 693.443 321.869C694.007 322.54 695.008 322.627 695.679 322.064Z" fill="#6F7D95"/>
<path d="M699.461 329.749C699.614 328.887 699.037 328.064 698.174 327.912C697.311 327.759 696.488 328.336 696.335 329.198C696.183 330.061 696.759 330.884 697.623 331.036C698.486 331.188 699.309 330.612 699.461 329.749Z" fill="#6F7D95"/>
<path d="M694.164 338.868C694.923 338.43 695.183 337.46 694.745 336.701C694.306 335.942 693.336 335.682 692.576 336.121C691.817 336.559 691.557 337.529 691.995 338.288C692.434 339.046 693.404 339.306 694.164 338.868Z" fill="#6F7D95"/>
<path d="M685.808 339.724C686.108 338.901 685.684 337.991 684.86 337.691C684.036 337.391 683.125 337.816 682.826 338.639C682.526 339.462 682.95 340.373 683.774 340.672C684.598 340.972 685.509 340.547 685.808 339.724Z" fill="#6F7D95"/>
<path d="M677.741 334.82C678.565 334.521 678.989 333.61 678.69 332.787C678.39 331.964 677.479 331.539 676.655 331.839C675.831 332.138 675.407 333.049 675.707 333.872C676.006 334.695 676.917 335.12 677.741 334.82Z" fill="#6F7D95"/>
<path d="M678.49 324.916C678.929 324.158 678.668 323.187 677.909 322.749C677.15 322.311 676.18 322.571 675.741 323.33C675.303 324.089 675.563 325.059 676.322 325.497C677.081 325.935 678.052 325.675 678.49 324.916Z" fill="#6F7D95"/>
<path d="M25.4475 387.25L19.6884 342.007H87.8987L122.96 373.229L105.75 413.373C105.75 413.373 36.3158 401.906 25.4475 387.25Z" fill="#6C757D"/>
<path opacity="0.05" d="M122.983 373.229L105.773 413.373C105.773 413.373 36.3159 401.906 25.4475 387.25L25.1981 385.279L19.9076 343.443L19.8547 343.027L19.7262 342.015H87.9365L122.983 373.229Z" fill="black"/>
<path d="M405.392 203.106V217.761C405.392 217.761 370.142 246.468 361.753 273.55C360.288 277.948 359.735 282.597 360.128 287.216C363.317 317.161 268.344 262.996 268.344 262.996L272.569 260.942C294.404 250.419 394.048 202.532 405.392 203.106Z" fill="#505050"/>
<path d="M485.718 273.837C485.718 273.837 518.731 257.625 524.029 245.629C524.739 244.02 525.412 242.396 526.198 240.817C529.471 234.237 536.348 218.804 532.887 211.393C528.428 201.837 543.725 212.67 543.725 212.67L534.799 257.897L513.123 269.984L485.075 273.837" fill="#6C757D"/>
<path opacity="0.05" d="M485.718 273.837C485.718 273.837 518.731 257.625 524.029 245.629C524.739 244.02 525.412 242.396 526.198 240.817C529.471 234.237 536.348 218.804 532.887 211.393C528.428 201.837 543.725 212.67 543.725 212.67L534.799 257.897L513.123 269.984L485.075 273.837" fill="black"/>
<path opacity="0.05" d="M122.983 373.229L105.773 413.373C105.773 413.373 36.3158 401.906 25.4475 387.25L25.1981 385.279C25.4778 385.09 25.7725 384.893 26.0824 384.704C26.0824 384.704 47.1161 401.271 94.9351 405.101C94.9351 405.101 123.655 382.159 77.0833 356.678C77.0833 356.678 36.5728 357.947 19.8849 343.45L19.7035 343.299L19.832 343.035C19.9428 342.818 20.1217 342.481 20.3686 342.022H87.9138L122.983 373.229Z" fill="black"/>
<path opacity="0.05" d="M360.128 287.208C363.317 317.161 268.344 262.997 268.344 262.997L272.569 260.942C275.366 263.918 286.529 273.958 308.847 272.87C323.207 272.168 345.012 272.81 361.79 273.542C360.313 277.937 359.748 282.587 360.128 287.208Z" fill="black"/>
<path opacity="0.05" d="M400.608 299V389.479H358.919C361.67 368.432 360.082 337.754 333.342 320.168C323.369 313.652 311.789 310.016 299.879 309.662C287.97 309.307 276.194 312.247 265.85 318.158C248.323 328.16 228.726 348.496 216.27 389.479H176.213V299H400.608Z" fill="black"/>
<path opacity="0.05" d="M742.748 327.307C741.176 337.293 738.652 346.993 734.744 355.258C734.24 356.371 733.691 357.456 733.097 358.514C733.195 358.143 733.913 355.56 734.744 351.496C738.795 331.703 745.726 276.934 699.29 273.807C698.685 273.769 698.088 273.731 697.491 273.709C693.775 270.523 689.775 267.683 685.542 265.225H724.428C724.428 265.225 739.725 296.447 742.914 311.737C743.836 316.028 743.579 321.565 742.748 327.307Z" fill="black"/>
<path d="M734.359 357.894C734.963 355.711 756.503 276.965 700.552 273.195C643.815 269.372 636.801 312.062 630.43 370.049C630.43 370.049 451.307 383.428 355.034 411.469C355.034 411.469 378.146 348.164 334.627 319.533C324.654 313.017 313.074 309.382 301.164 309.027C289.255 308.672 277.479 311.613 267.135 317.524C245.671 329.777 221.085 357.562 210.33 419.749H103.219C103.219 419.749 82.8123 421.026 75.8061 411.439C75.8061 411.439 47.0859 412.074 29.2719 396.784C29.2719 396.784 10.1503 392.961 25.4476 383.405C25.4476 383.405 47.1237 399.972 94.9352 403.802C94.9352 403.802 123.655 380.859 77.0834 355.378C77.0834 355.378 36.2705 356.655 19.7111 342C19.7111 342 25.5232 329.981 38.7873 315.439C56.9295 295.492 80.0459 280.718 105.773 272.628C123.109 267.272 141.178 264.666 159.321 264.908L271.836 261.403C271.836 261.403 282.704 275.423 308.81 274.147C334.915 272.87 385.946 276.058 385.946 276.058H386.452L491.447 271.306C494.462 270.881 497.444 270.25 500.373 269.418C515.594 265.286 544.466 252.753 539.258 217.754L704.369 227.952C710.592 228.238 716.774 229.11 722.833 230.558C731.313 232.734 739.067 236.707 736.883 243.884C732.424 258.54 744.532 260.451 744.532 260.451C744.532 260.451 744.789 262.407 745.106 265.807C746.618 281.837 749.588 330.034 734.359 357.894Z" fill="#6C757D"/>
<path opacity="0.05" d="M229.444 287.85C229.444 287.85 160.591 288.485 115.319 328.644H140.819C140.819 328.644 212.219 310.166 229.428 295.51L229.444 287.85Z" fill="black"/>
<path d="M228.801 287.208C228.801 287.208 159.949 287.843 114.677 328.002H140.177C140.177 328.002 211.577 309.524 228.786 294.868L228.801 287.208Z" fill="#505051"/>
<path opacity="0.05" d="M106.408 273.27V290.396L48.4085 317.161L39.4297 316.081C57.5697 296.135 80.6835 281.361 106.408 273.27Z" fill="black"/>
<path d="M105.766 272.636V289.762L47.7586 316.519L38.7798 315.439C56.9228 295.494 80.0392 280.723 105.766 272.636Z" fill="#505051"/>
<path opacity="0.05" d="M188.004 350.294C188.004 350.294 156.767 369.407 153.577 411.485H171.429C171.429 411.485 178.443 365.607 198.842 350.294H188.004Z" fill="black"/>
<path opacity="0.05" d="M557.118 351.571L395.189 370.684C395.189 370.684 384.479 302.543 386.46 276.035L491.454 271.284C494.466 270.865 497.446 270.242 500.373 269.418V275.741L579.421 256.628C579.421 256.628 592.814 276.375 557.118 351.571Z" fill="black"/>
<path d="M539.266 199.276C539.266 199.276 573.692 194.819 588.989 224.129L539.757 222.233L539.266 199.276Z" fill="#6C757D"/>
<path opacity="0.05" d="M586.601 234.403C585.248 238.641 586.269 243.302 594.106 246.528C600.629 249.217 608.277 246.105 610.507 239.419C611.807 235.521 610.915 231.11 603.886 227.521C596.857 223.933 588.967 227 586.601 234.403Z" fill="black"/>
<path d="M20.9203 351.556C20.9203 351.556 61.7785 372.708 91.1032 364.701" stroke="#6C757D" stroke-miterlimit="10"/>
<path d="M22.3639 362.978C22.3639 362.978 48.7637 383.33 102.123 378.601" stroke="#6C757D" stroke-miterlimit="10"/>
<path d="M23.5807 372.565C23.5807 372.565 49.7689 395.28 103.581 388.081" stroke="#6C757D" stroke-miterlimit="10"/>
<path opacity="0.05" d="M587.017 220.707C587.017 220.707 565.719 239.087 546.28 247.397C546.28 247.397 575.801 252.647 587.017 220.707Z" fill="black"/>
<path opacity="0.1" d="M361.382 274.804C361.382 274.804 462.447 284.345 500.69 275.423C500.69 275.423 502.731 276.776 490.555 271.321L361.382 274.804Z" fill="black"/>
<path opacity="0.05" d="M745.114 265.807C738.818 261.675 728.834 253.1 730.194 243.559C730.874 238.777 727.488 234.305 722.84 230.551C731.32 232.726 739.075 236.7 736.891 243.877C732.431 258.532 744.539 260.443 744.539 260.443C744.539 260.443 744.789 262.407 745.114 265.807Z" fill="black"/>
<path d="M237.153 332.315C237.213 329.792 237.153 327.171 236.964 324.761C236.964 324.3 236.888 323.854 236.843 323.416C238.264 324.489 239.11 325.305 239.11 325.305L237.863 259.703L230.985 225.338C230.985 200.968 217.857 194.101 217.857 194.101C217.857 194.101 210.98 190.974 209.105 186.607C207.231 182.241 190.619 173.009 190.611 173.009C190.479 171.419 190.429 169.823 190.46 168.227C190.46 167.812 190.46 167.381 190.498 166.951C194.662 164.191 197.683 160.014 199 155.195C200.316 150.377 199.838 145.245 197.655 140.752C198.577 140.752 199.325 140.367 199.673 139C200.776 134.671 199.711 128.152 197.201 124.692C196.665 123.968 196.06 123.298 195.395 122.69C194.616 121.909 193.796 121.17 192.939 120.477C190.792 118.694 188.404 116.82 185.744 116.971C184.234 117.169 182.784 117.684 181.489 118.482C174.843 121.977 168.214 125.503 161.604 129.058C159.162 130.38 156.646 131.77 154.938 134.142C153.229 136.514 152.542 139.551 152.066 142.535C151.665 144.557 151.571 146.627 151.786 148.677C151.986 150.542 152.84 152.276 154.197 153.572C154.47 153.903 154.783 154.199 155.126 154.456C156.472 155.438 158.203 155.68 159.608 156.473C160.671 159.557 162.45 162.346 164.801 164.609C164.801 164.994 164.748 165.364 164.718 165.787C164.634 166.868 164.506 168.054 164.34 169.255C164.34 169.255 159.722 169.134 152.844 178.501C145.966 187.869 130.964 189.123 130.964 189.123C130.964 189.123 125.341 186.622 119.09 214.739C112.84 242.857 110.966 261.576 114.087 264.719C115.412 265.862 116.906 266.795 118.516 267.484C123.814 270.157 129.516 271.943 135.393 272.772C135.468 272.997 135.594 273.202 135.763 273.369L136.209 278.815C136.587 290.313 137.025 313.376 134.697 318.491C131.568 325.365 135.325 329.739 135.325 329.739L136.081 329.686C136.22 329.924 136.377 330.151 136.549 330.366L139.572 330.162C139.353 343.005 138.764 360.818 137.207 364.731C134.705 370.978 137.207 405.343 137.207 405.343L132.831 467.198C132.831 467.198 130.435 499.485 132.679 503.224C131.455 509.94 129.256 522.737 129.709 525.925C130.336 530.299 144.712 536.546 144.712 536.546C144.712 536.546 161.589 540.324 169.713 539.047C173.961 538.39 175.646 535.519 175.661 533.004C181.171 533.887 188.344 534.733 192.841 534.038C200.965 532.792 199.718 523.417 195.342 524.044C190.966 524.671 185.963 515.878 182.244 511.504C180.355 509.298 178.783 505.355 177.71 501.978C178.5 501.859 179.226 501.472 179.765 500.882C181.64 497.755 184.769 469.018 184.769 469.018L192.893 419.039C192.893 419.039 197.27 394.669 201.018 389.048C203.852 384.803 207.397 353.12 208.962 337.86H209.098H209.143L209.309 337.324L211.66 329.739C212.914 331.953 216.074 333.048 219.754 333.516C219.361 335.118 219.036 336.425 218.847 337.173C217.91 340.95 231.575 347.167 234.87 344.047C236.253 342.74 236.971 338.004 237.138 332.821H237.251L237.153 332.315ZM155.028 502.696C154.817 503.912 154.605 505.181 154.393 506.473C153.917 504.962 153.539 503.602 153.282 502.597C153.902 502.62 154.484 502.65 155.028 502.696Z" fill="url(#paint2_linear)"/>
<path d="M175.986 489.672C175.986 489.672 178.397 500.505 182.033 504.713C185.668 508.92 190.46 517.343 194.67 516.747C198.879 516.15 200.089 525.17 192.259 526.371C184.429 527.572 168.179 523.961 168.179 523.961C168.179 523.961 154.333 517.917 153.736 513.732C153.139 509.547 157.349 487.859 157.349 487.859L175.986 489.672Z" fill="#505051"/>
<path opacity="0.05" d="M175.986 489.672C175.986 489.672 178.397 500.505 182.033 504.713C185.668 508.92 190.46 517.343 194.67 516.747C198.879 516.15 200.089 525.17 192.259 526.371C184.429 527.572 168.179 523.961 168.179 523.961C168.179 523.961 154.333 517.917 153.736 513.732C153.139 509.547 157.349 487.859 157.349 487.859L175.986 489.672Z" fill="black"/>
<path d="M153.713 494.484C153.713 494.484 156.124 505.317 159.76 509.525C163.395 513.732 168.187 522.155 172.396 521.559C176.606 520.962 177.815 529.982 169.985 531.183C162.155 532.384 145.906 528.781 145.906 528.781C145.906 528.781 132.06 522.737 131.463 518.552C130.866 514.367 135.075 492.678 135.075 492.678L153.713 494.484Z" fill="#505051"/>
<path d="M208.493 329.633C208.493 329.633 203.679 381.373 200.066 386.789C196.453 392.206 192.243 415.67 192.243 415.67L184.421 463.798C184.421 463.798 181.398 491.477 179.607 494.484C177.815 497.491 155.474 496.199 155.474 496.199L169.335 336.855L208.493 329.633Z" fill="#C3B091"/>
<path opacity="0.05" d="M208.493 329.633C208.493 329.633 203.679 381.373 200.066 386.789C196.453 392.206 192.243 415.67 192.243 415.67L184.421 463.798C184.421 463.798 181.398 491.477 179.607 494.484C177.815 497.491 155.474 496.199 155.474 496.199L169.335 336.855L208.493 329.633Z" fill="black"/>
<path d="M218.122 304.968L216.55 309.962L208.047 336.938L207.881 337.452H207.835C206.694 337.709 182.6 343.246 177.4 344.946C177.119 345.033 176.844 345.136 176.576 345.256C174.165 346.457 171.157 389.773 171.157 389.773C171.157 389.773 169.35 430.688 168.134 433.694C166.917 436.701 162.087 498.661 159.102 496.864C156.117 495.066 134.425 496.864 134.425 496.864C132.014 494.454 134.425 461.97 134.425 461.97L138.635 402.404C138.635 402.404 136.224 369.316 138.635 363.295C141.046 357.275 141.046 316.972 141.046 316.972L190.346 309.342L195.108 308.587L218.122 304.968Z" fill="#C3B091"/>
<path opacity="0.02" d="M216.55 309.962L208.047 336.938L207.843 337.467C206.702 337.724 182.607 343.261 177.407 344.961H176.886L190.346 309.342L190.732 308.315L195.108 308.594L216.55 309.962Z" fill="black"/>
<path opacity="0.1" d="M160.334 184.643C160.334 184.643 182.607 208.711 196.453 188.851L209.695 197.878L207.284 211.718L215.106 316.406C215.106 316.406 194.639 315.801 180.196 320.613C176.174 322.04 171.827 322.288 167.668 321.328C163.509 320.368 159.711 318.241 156.721 315.197L159.132 223.147L153.713 194.872L160.334 184.643Z" fill="black"/>
<path d="M160.334 182.838C160.334 182.838 182.607 206.906 196.453 187.045L209.695 196.073L207.284 209.912L215.114 314.63C215.114 314.63 194.647 314.026 180.204 318.838C176.181 320.264 171.835 320.512 167.676 319.553C163.517 318.593 159.719 316.466 156.729 313.422L159.14 221.372L153.721 193.096L160.334 182.838Z" fill="#C4C4C4"/>
<path d="M206.687 307.371C206.687 307.371 206.687 323.016 210.299 329.633C213.912 336.251 234.976 332.655 234.976 332.655L230.766 310.392L206.687 307.371Z" fill="#2D5A7A"/>
<path d="M232.686 343.473C229.512 346.495 216.353 340.451 217.26 336.855C217.895 334.309 220.117 325.199 221.379 320.032L222.256 316.398C222.256 316.398 229.965 313.988 232.686 316.398C233.676 317.274 234.371 320.727 234.696 324.897C235.256 332.141 234.704 341.562 232.686 343.473Z" fill="#926A2D"/>
<path d="M203.794 193.839L182.73 210.081C182.73 210.081 151.433 208.275 159.255 193.235C162.661 186.62 164.717 179.393 165.302 171.977C165.556 169.24 165.556 166.486 165.302 163.75C165.302 163.75 194.196 137.31 190.583 167.361C190.298 169.668 190.132 171.987 190.084 174.311C189.683 196.868 203.794 193.839 203.794 193.839Z" fill="#926A2D"/>
<path opacity="0.1" d="M190.43 167.193C190.145 169.499 189.978 171.819 189.931 174.142C186.688 176.289 182.884 177.43 178.994 177.421C173.606 177.421 169.638 172.178 166.055 168.696C166.456 163.702 165.156 163.582 165.156 163.582C165.156 163.582 194.042 137.104 190.43 167.193Z" fill="black"/>
<path d="M178.994 176.212C189.964 176.212 198.857 167.324 198.857 156.36C198.857 145.395 189.964 136.507 178.994 136.507C168.025 136.507 159.132 145.395 159.132 156.36C159.132 167.324 168.025 176.212 178.994 176.212Z" fill="#926A2D"/>
<path opacity="0.1" d="M164.854 175.313C164.854 175.313 161.543 175.616 154.922 184.635C148.302 193.655 133.813 194.864 133.813 194.864C133.813 194.864 128.394 192.454 122.378 219.529C116.362 246.604 114.556 264.651 117.564 267.658C120.572 270.664 132.611 274.879 138.628 274.879C138.628 274.879 140.434 312.78 137.426 319.397C134.418 326.015 138.03 330.23 138.03 330.23L164.483 328.425C164.483 328.425 173.515 316.995 175.321 297.142C177.128 277.289 183.144 220.73 180.136 214.112C177.128 207.495 163.886 190.649 164.483 188.843C165.08 187.038 164.854 175.313 164.854 175.313Z" fill="black"/>
<path d="M164.801 175.132C164.801 175.132 160.349 175.011 153.728 184.039C147.108 193.066 132.664 194.267 132.664 194.267C132.664 194.267 127.245 191.857 121.229 218.932C115.213 246.007 113.407 264.054 116.43 267.038C119.453 270.022 131.478 274.26 137.494 274.26C137.494 274.26 139.3 312.16 136.292 318.778C133.284 325.395 136.897 329.611 136.897 329.611L163.35 327.805C163.35 327.805 172.381 316.375 174.188 296.523C175.994 276.67 182.01 220.111 179.002 213.493C175.994 206.875 162.752 190.029 163.35 188.224C163.947 186.418 164.801 175.132 164.801 175.132Z" fill="#2D5A7A"/>
<path d="M148.929 252.624C148.929 252.624 179.047 218.101 174.815 241.792C171.792 258.638 160.372 267.665 154.953 269.471C149.534 271.276 148.929 252.624 148.929 252.624Z" fill="#926A2D"/>
<path opacity="0.1" d="M234.696 324.897C231.817 322.698 226.383 319.276 221.379 320.032L222.256 316.398C222.256 316.398 229.965 313.988 232.686 316.398C233.684 317.274 234.371 320.727 234.696 324.897Z" fill="black"/>
<path opacity="0.1" d="M190.127 178.924C190.127 178.924 205.477 188.851 207.284 193.066C209.09 197.281 215.711 200.288 215.711 200.288C215.711 200.288 228.348 206.906 228.348 230.369L234.969 263.457L204.858 305.565C204.858 305.565 201.245 263.45 199.439 253.221C197.632 242.993 195.229 223.759 195.229 223.759C195.229 223.759 186.197 212.33 187.406 209.323C188.616 206.316 190.127 178.924 190.127 178.924Z" fill="black"/>
<path d="M190.074 178.743C190.074 178.743 206.082 187.65 207.881 191.857C209.68 196.065 216.316 199.049 216.316 199.049C216.316 199.049 228.952 205.667 228.952 229.13L235.573 262.218L236.775 325.388C236.775 325.388 225.937 315.159 218.114 319.971C210.292 324.783 205.477 304.326 205.477 304.326C205.477 304.326 201.865 262.211 200.058 251.982C198.252 241.754 195.849 222.52 195.849 222.52C195.849 222.52 186.817 211.136 188.026 208.114C189.235 205.093 190.074 178.743 190.074 178.743Z" fill="#2D5A7A"/>
<path opacity="0.1" d="M196.431 132.216C195.411 130.92 194.233 129.758 192.924 128.756C190.853 127.034 188.563 125.236 185.993 125.387C184.539 125.58 183.143 126.08 181.897 126.852C175.498 130.222 169.116 133.626 162.752 137.066C160.402 138.335 157.976 139.68 156.336 141.961C154.696 144.242 154.031 147.174 153.57 150.044C153.184 151.989 153.092 153.98 153.297 155.952C153.485 157.885 154.424 159.667 155.912 160.915C157.628 162.161 159.979 162.169 161.415 163.801C162.246 164.745 162.609 166.067 163.198 167.215C163.788 168.363 164.808 169.481 165.972 169.277C167.136 169.074 167.839 167.842 168.005 166.596C168.079 165.332 168.006 164.065 167.786 162.819C167.559 160.552 167.846 158.15 169.162 156.465C170.068 155.317 171.368 154.622 172.245 153.444C174.346 150.603 173.386 145.889 175.692 143.223C176.361 142.526 177.203 142.018 178.133 141.753C179.062 141.488 180.045 141.473 180.982 141.712C182.849 142.105 184.557 143.117 186.273 143.978C188.59 145.147 191.018 146.083 193.521 146.773C195.622 147.347 198.056 148.722 198.774 145.927C199.869 141.825 198.811 135.547 196.431 132.216Z" fill="black"/>
<path d="M195.826 131.612C194.807 130.316 193.629 129.153 192.319 128.152C190.248 126.429 187.958 124.631 185.388 124.782C183.935 124.976 182.538 125.475 181.292 126.248C174.898 129.617 169.585 126.429 162.148 136.461C160.561 138.607 157.371 139.075 155.731 141.357C154.091 143.638 153.426 146.569 152.965 149.44C152.579 151.384 152.487 153.376 152.693 155.347C152.88 157.28 153.819 159.062 155.308 160.31C157.024 161.557 159.374 161.565 160.81 163.196C161.641 164.141 162.004 165.463 162.594 166.611C163.183 167.759 164.204 168.877 165.367 168.673C166.531 168.469 167.234 167.238 167.401 165.991C167.475 164.728 167.401 163.46 167.181 162.214C166.955 159.948 167.242 157.546 168.557 155.861C169.464 154.713 170.764 154.018 171.641 152.839C173.742 149.999 172.782 145.285 175.087 142.618C175.756 141.921 176.599 141.414 177.528 141.149C178.458 140.883 179.441 140.869 180.378 141.107C182.244 141.5 183.952 142.512 185.668 143.374C187.986 144.542 190.414 145.479 192.916 146.169C195.017 146.743 197.451 148.118 198.169 145.323C199.272 141.221 198.244 134.943 195.826 131.612Z" fill="black"/>
<path d="M141.673 220.738C141.673 220.738 141.069 243 138.061 246.007C135.053 249.013 139.867 252.624 139.867 252.624L151.907 249.603C151.907 249.603 148.884 269.456 161.536 267.053C161.536 267.053 153.109 274.872 144.681 276.081C136.254 277.289 136.836 274.283 136.836 274.283L124.199 259.242L141.673 220.738Z" fill="#2D5A7A"/>
<path opacity="0.1" d="M141.575 223.442C141.575 223.442 133.549 243.899 139.572 252.322L152.814 249.301C152.814 249.301 140.774 252.911 142.58 245.69C144.387 238.468 141.575 223.442 141.575 223.442Z" fill="black"/>
<path opacity="0.1" d="M137.161 273.981C137.161 273.981 154.62 275.182 159.434 271.571C153.099 276.421 145.611 279.545 137.705 280.636L137.161 273.981Z" fill="black"/>
<path opacity="0.1" d="M212.416 235.476C212.416 235.476 221.447 263.155 220.843 267.363C220.238 271.571 219.036 317.901 219.036 317.901L217.23 317.297L217.835 266.759L212.416 235.476Z" fill="black"/>
<path d="M592.67 313.747C592.67 313.747 605.897 339.696 595.119 353.89C584.341 368.085 596.101 406.771 596.101 406.771" stroke="#8E4B32" stroke-miterlimit="10"/>
<path d="M596.585 305.671C596.585 310.672 592.912 314.736 592.912 314.736C592.912 314.736 589.239 310.679 589.239 305.671C589.239 300.662 592.912 296.606 592.912 296.606C592.912 296.606 596.585 300.67 596.585 305.671Z" fill="#059033"/>
<path d="M595.603 305.671C595.603 310.672 599.276 314.736 599.276 314.736C599.276 314.736 602.949 310.679 602.949 305.671C602.949 300.662 599.276 296.606 599.276 296.606C599.276 296.606 595.603 300.67 595.603 305.671Z" fill="#059033"/>
<path opacity="0.1" d="M595.603 305.671C595.603 310.672 599.276 314.736 599.276 314.736C599.276 314.736 602.949 310.679 602.949 305.671C602.949 300.662 599.276 296.606 599.276 296.606C599.276 296.606 595.603 300.67 595.603 305.671Z" fill="black"/>
<path d="M604.914 313.747C604.914 313.747 618.14 339.696 607.363 353.89C596.585 368.085 608.345 406.771 608.345 406.771" stroke="#8E4B32" stroke-miterlimit="10"/>
<path d="M608.829 305.671C608.829 310.672 605.156 314.736 605.156 314.736C605.156 314.736 601.483 310.679 601.483 305.671C601.483 300.662 605.156 296.606 605.156 296.606C605.156 296.606 608.829 300.67 608.829 305.671Z" fill="#059033"/>
<path d="M606.773 326.46C603.304 330.064 597.84 330.442 597.84 330.442C597.84 330.442 598.006 324.972 601.475 321.376C604.944 317.781 610.409 317.395 610.409 317.395C610.409 317.395 610.242 322.857 606.773 326.46Z" fill="#059033"/>
<path d="M607.113 344.364C603.644 347.968 598.18 348.345 598.18 348.345C598.18 348.345 598.346 342.876 601.815 339.28C605.284 335.684 610.719 335.292 610.719 335.292C610.719 335.292 610.582 340.753 607.113 344.364Z" fill="#059033"/>
<path d="M588.302 354.208C591.582 357.985 591.469 363.454 591.469 363.454C591.469 363.454 586.034 362.797 582.754 359.02C579.474 355.242 579.587 349.773 579.587 349.773C579.587 349.773 585.022 350.43 588.302 354.208Z" fill="#059033"/>
<path d="M591.348 316.036C595.52 318.8 596.872 324.104 596.872 324.104C596.872 324.104 591.453 324.919 587.289 322.185C583.124 319.45 581.764 314.117 581.764 314.117C581.764 314.117 587.176 313.271 591.348 316.036Z" fill="#059033"/>
<path opacity="0.1" d="M591.348 316.036C595.52 318.8 596.872 324.104 596.872 324.104C596.872 324.104 591.453 324.919 587.289 322.185C583.124 319.45 581.764 314.117 581.764 314.117C581.764 314.117 587.176 313.271 591.348 316.036Z" fill="black"/>
<path d="M611.769 313.747C611.769 313.747 598.543 339.696 609.32 353.89C620.098 368.085 608.338 406.771 608.338 406.771" stroke="#8E4B32" stroke-miterlimit="10"/>
<path d="M607.854 305.671C607.854 310.672 611.527 314.736 611.527 314.736C611.527 314.736 615.2 310.679 615.2 305.671C615.2 300.662 611.527 296.606 611.527 296.606C611.527 296.606 607.854 300.67 607.854 305.671Z" fill="#059033"/>
<path opacity="0.1" d="M607.854 305.671C607.854 310.672 611.527 314.736 611.527 314.736C611.527 314.736 615.2 310.679 615.2 305.671C615.2 300.662 611.527 296.606 611.527 296.606C611.527 296.606 607.854 300.67 607.854 305.671Z" fill="black"/>
<path d="M608.912 326.846C605.398 330.411 605.133 335.911 605.133 335.911C605.133 335.911 610.598 335.601 614.112 332.036C617.626 328.47 617.891 322.97 617.891 322.97C617.891 322.97 612.419 323.28 608.912 326.846Z" fill="#059033"/>
<path opacity="0.1" d="M608.912 326.846C605.398 330.411 605.133 335.911 605.133 335.911C605.133 335.911 610.598 335.601 614.112 332.036C617.626 328.47 617.891 322.97 617.891 322.97C617.891 322.97 612.419 323.28 608.912 326.846Z" fill="black"/>
<path d="M615.797 351.647C612.283 355.212 612.018 360.712 612.018 360.712C612.018 360.712 617.483 360.402 620.997 356.836C624.512 353.271 624.776 347.771 624.776 347.771C624.776 347.771 619.312 348.066 615.797 351.647Z" fill="#059033"/>
<path d="M605.662 346.185C605.662 346.185 613.621 333.645 624.799 333.342" stroke="#8E4B32" stroke-miterlimit="10"/>
<path d="M599.465 338.608C599.465 338.608 591.506 326.068 580.328 325.765" stroke="#8E4B32" stroke-miterlimit="10"/>
<path d="M598.429 356.512C598.429 356.512 606.388 343.971 617.566 343.669" stroke="#8E4B32" stroke-miterlimit="10"/>
<path d="M624.429 335.337C625.568 335.337 626.492 334.414 626.492 333.275C626.492 332.136 625.568 331.212 624.429 331.212C623.289 331.212 622.365 332.136 622.365 333.275C622.365 334.414 623.289 335.337 624.429 335.337Z" fill="#FFD037"/>
<path d="M580.517 327.934C581.657 327.934 582.58 327.01 582.58 325.871C582.58 324.732 581.657 323.809 580.517 323.809C579.377 323.809 578.454 324.732 578.454 325.871C578.454 327.01 579.377 327.934 580.517 327.934Z" fill="#FFD037"/>
<path d="M604.287 360.644C604.287 360.644 596.328 348.104 585.15 347.801" stroke="#8E4B32" stroke-miterlimit="10"/>
<path d="M585.339 349.97C586.479 349.97 587.402 349.046 587.402 347.907C587.402 346.768 586.479 345.845 585.339 345.845C584.199 345.845 583.276 346.768 583.276 347.907C583.276 349.046 584.199 349.97 585.339 349.97Z" fill="#FFD037"/>
<path d="M617.717 345.837C618.857 345.837 619.78 344.914 619.78 343.775C619.78 342.636 618.857 341.713 617.717 341.713C616.578 341.713 615.654 342.636 615.654 343.775C615.654 344.914 616.578 345.837 617.717 345.837Z" fill="#FFD037"/>
<path d="M648.289 391.685C648.289 391.685 629.107 387.847 623.99 382.733C618.873 377.618 595.852 368.697 593.297 375.065C590.743 381.433 558.765 403.213 580.487 407.043C602.208 410.873 631.646 412.157 638.04 409.596C644.434 407.035 648.289 391.685 648.289 391.685Z" fill="#8E4B32"/>
<path opacity="0.2" d="M580.487 404.671C602.231 408.508 631.646 409.785 638.041 407.224C642.908 405.275 646.294 395.892 647.632 391.571L648.274 391.707C648.274 391.707 644.435 407.05 638.041 409.603C631.646 412.157 602.231 410.88 580.487 407.05C574.214 405.94 572.415 403.341 573.095 400.055C573.647 402.193 575.831 403.847 580.487 404.671Z" fill="black"/>
<path d="M85.6464 455.64C85.6464 455.64 91.98 463.949 82.7215 476.414C73.463 488.879 65.8295 499.462 68.9207 507.266C68.9207 507.266 82.8878 484.051 94.2549 483.727C105.622 483.402 98.1472 469.6 85.6464 455.64Z" fill="#3A5F0B"/>
<path opacity="0.1" d="M85.6465 455.64C86.1984 456.44 86.6336 457.315 86.9389 458.238C98.0339 471.262 103.937 483.417 93.28 483.727C83.3489 484.014 71.4376 501.759 68.5807 506.246C68.675 506.592 68.7885 506.933 68.9208 507.266C68.9208 507.266 82.8878 484.051 94.255 483.727C105.622 483.402 98.1473 469.6 85.6465 455.64Z" fill="black"/>
<path d="M97.4217 466.185C97.4217 469.101 97.0967 471.473 96.6659 471.473C96.2351 471.473 95.9102 469.109 95.9102 466.185C95.9102 463.262 96.3183 464.675 96.7188 464.675C97.1194 464.675 97.4217 463.277 97.4217 466.185Z" fill="#FFD037"/>
<path d="M101.458 469.668C98.8955 471.066 96.6659 471.934 96.477 471.549C96.288 471.164 98.2002 469.774 100.762 468.384C103.324 466.994 102.312 468.006 102.508 468.384C102.705 468.762 104.02 468.27 101.458 469.668Z" fill="#FFD037"/>
<path d="M52.1875 455.64C52.1875 455.64 45.854 463.949 55.1125 476.414C64.3709 488.879 72.0044 499.462 68.9133 507.258C68.9133 507.258 54.9462 484.044 43.5791 483.719C32.2119 483.394 39.6867 469.6 52.1875 455.64Z" fill="#3A5F0B"/>
<path opacity="0.1" d="M52.1875 455.64C51.6356 456.44 51.2005 457.315 50.8951 458.238C39.8001 471.262 33.8974 483.417 44.554 483.727C54.4852 484.014 66.3965 501.759 69.2534 506.246C69.1591 506.592 69.0455 506.933 68.9132 507.266C68.9132 507.266 54.9462 484.051 43.5791 483.727C32.2119 483.402 39.6867 469.6 52.1875 455.64Z" fill="black"/>
<path d="M40.4122 466.185C40.4122 469.101 40.7372 471.473 41.168 471.473C41.5988 471.473 41.9238 469.109 41.9238 466.185C41.9238 463.262 41.5157 464.675 41.1151 464.675C40.7146 464.675 40.4122 463.277 40.4122 466.185Z" fill="#FFD037"/>
<path d="M36.3763 469.668C38.9384 471.066 41.168 471.934 41.357 471.549C41.5459 471.164 39.6338 469.774 37.0716 468.384C34.5095 466.994 35.5222 468.006 35.3257 468.384C35.1292 468.762 33.8142 468.27 36.3763 469.668Z" fill="#FFD037"/>
<path d="M42.4302 506.171C42.4302 506.171 60.1384 505.627 65.4743 501.827C70.8102 498.027 92.6829 493.517 94.0357 499.56C95.3886 505.604 120.647 529.861 100.656 530.02C80.6658 530.178 54.2054 526.907 48.8771 523.666C43.5487 520.426 42.4302 506.171 42.4302 506.171Z" fill="#8E4B32"/>
<path opacity="0.2" d="M101.019 527.927C81.0285 528.086 54.5682 524.815 49.2399 521.574C45.1813 519.104 43.5639 510.242 43.0273 506.155H42.4377C42.4377 506.155 43.5563 520.433 48.8847 523.674C54.213 526.915 80.6733 530.193 100.664 530.027C106.438 529.982 108.426 527.927 108.32 524.89C107.512 526.749 105.312 527.889 101.019 527.927Z" fill="black"/>
</g>
<defs>
<linearGradient id="paint0_linear" x1="382.953" y1="450.956" x2="382.953" y2="183.094" gradientUnits="userSpaceOnUse">
<stop stop-color="#808080" stop-opacity="0.25"/>
<stop offset="0.54" stop-color="#808080" stop-opacity="0.12"/>
<stop offset="1" stop-color="#808080" stop-opacity="0.1"/>
</linearGradient>
<linearGradient id="paint1_linear" x1="52191.2" y1="131784" x2="65939.7" y2="80699.4" gradientUnits="userSpaceOnUse">
<stop stop-color="#808080" stop-opacity="0.25"/>
<stop offset="0.54" stop-color="#808080" stop-opacity="0.12"/>
<stop offset="1" stop-color="#808080" stop-opacity="0.1"/>
</linearGradient>
<linearGradient id="paint2_linear" x1="40676.6" y1="327580" x2="40676.6" y2="91483.4" gradientUnits="userSpaceOnUse">
<stop stop-color="#808080" stop-opacity="0.25"/>
<stop offset="0.54" stop-color="#808080" stop-opacity="0.12"/>
<stop offset="1" stop-color="#808080" stop-opacity="0.1"/>
</linearGradient>
<clipPath id="clip0">
<rect width="774" height="593" fill="white"/>
</clipPath>
</defs>
</svg>
