<svg xmlns="http://www.w3.org/2000/svg" viewBox="0 0 199.68 73.66"><title>allied-logo</title><path d="M36.15,20C42.88,6.4,51.36.6,51.36.6A216.55,216.55,0,0,0,24.52,13.13C8.17,22.34-7.56,35.16,3.94,46.42c0,0,9.27,4.44,24.39,3.48A80.07,80.07,0,0,1,36.15,20" fill="#f7a300"/><path d="M69.9,35.07c.18-17-2.47-35-14.47-35.07h-.07a15,15,0,0,0-4,.6S42.88,6.4,36.15,20a80,80,0,0,1,22,21.74c8.38,12.61,9.17,22.86,9.17,22.86A216.9,216.9,0,0,0,69.9,35.07" fill="#cd2030"/><path d="M67.34,64.58s-.79-10.24-9.17-22.86a80.05,80.05,0,0,1-29.84,8.19c-15.12,1-24.39-3.48-24.39-3.48a216.36,216.36,0,0,0,24.28,17c16.15,9.56,35.12,16.76,39.12,1.19" fill="#94000b"/><path d="M98.89,38.8H90.62l5-10.75L98.89,38.8M110,51.75c-.39-1.41-.69-2.65-1.07-3.86-2.58-8.23-5.13-16.47-7.8-24.68-.85-2.61-2.73-3.49-5.48-3.09C93.26,20.46,91.92,22,91,24Q84.46,37.41,78,50.81a8.32,8.32,0,0,0-.3.95c2.18,0,4.23,0,6.28,0A1.47,1.47,0,0,0,85,51c.81-1.62,1.48-3.3,2.3-4.9a1.59,1.59,0,0,1,1.15-.75c3.82-.05,7.64,0,11.46,0a1,1,0,0,1,1.08.84q.66,2.44,1.41,4.86c.09.29.39.73.6.73C105.28,51.77,107.56,51.75,110,51.75Zm12.31-30.2c.27-3,.07-3.25-3-3.26a7.28,7.28,0,0,0-1.44.1,2.94,2.94,0,0,0-2.67,2.95c-.12,1.16-.23,2.32-.33,3.48q-1.15,12.85-2.29,25.69c0,.38,0,.76,0,1.19h7c.15-1.56.31-3.07.44-4.58C120.79,38.6,121.53,30.07,122.31,21.55Zm12.3-.88c.17-1.94.21-2-1.71-2.29a8.94,8.94,0,0,0-1.56-.09c-2.64,0-3.72,1-3.95,3.64q-1.28,14.47-2.54,28.94c0,.26,0,.52,0,.82h7c.17-1.82.35-3.57.5-5.32Q133.48,33.51,134.61,20.67Zm4.09,11.46c-.21,2.48-.43,5-.65,7.44-.35,4-.7,8-1.06,12.18,2.09,0,4,0,5.94,0,.94,0,1.22-.27,1.29-1.21.31-4.13.72-8.24,1.09-12.37.27-3.07.53-6.15.81-9.36-1-.2-1.87-.45-2.77-.55C140.45,28,138.95,29.23,138.71,32.13Zm8.23-10.36a3.4,3.4,0,0,0-3.62-3.49,4.11,4.11,0,0,0-4.22,4.14,3.46,3.46,0,0,0,3.59,3.53A4.25,4.25,0,0,0,146.94,21.77Zm16.59,16.17c-2.4,0-4.79,0-7.21,0,.48-3.66,3.69-6,6.88-5.22a3.08,3.08,0,0,1,2.46,2.65C165.9,37.07,165.22,37.91,163.53,37.94Zm8.08,1.55a8.06,8.06,0,0,0-4-11.12,13.54,13.54,0,0,0-9.67-.26c-7.14,2.31-9.89,9.48-8.94,15.78.64,4.21,3.17,6.83,7.25,7.93a21.19,21.19,0,0,0,10.37-.12c3.8-.86,3.86-4,2.27-6.64l-1,.33a14.9,14.9,0,0,1-8.29.66A4.58,4.58,0,0,1,156.08,43h1.48c2.81,0,5.63,0,8.43-.12A6.23,6.23,0,0,0,171.61,39.49Zm19.41-4c-.15,3.21-.4,6.42-.71,9.61a1.84,1.84,0,0,1-.93,1.23,6,6,0,0,1-8.61-5.55,24.36,24.36,0,0,1,.62-2.93c1.44-4.34,4.84-5.07,8.7-3.79A1.82,1.82,0,0,1,191,35.44Zm6.05-17.35h-.6c-2.73,0-3.84,1.13-4,3.86-.14,2.48-.33,5-.5,7.59-5.76-4-13.93-.9-16.47,5.46a15.47,15.47,0,0,0-.88,8.28,9.75,9.75,0,0,0,6.64,8.15,17.16,17.16,0,0,0,9.27.69c4.69-.9,6.94-3.59,7.29-8.33q.85-11.42,1.8-22.83C199.82,18.45,199.63,18.18,197.07,18.09Z" fill="#cd2030"/></svg>